<svg xmlns="http://www.w3.org/2000/svg" width="542" height="454" fill="none"><path fill="#D8E0EA" stroke="#4E83C0" stroke-width="3" d="M211.532 451.809H21.273c-10.645 0-19.259-8.614-19.259-19.258V21.357c0-10.644 8.614-19.258 19.259-19.258h190.259c10.645 0 19.259 8.614 19.259 19.258V432.55c0 10.644-8.614 19.258-19.259 19.258z"/><mask id="a" width="227" height="448" x="3" y="3" maskUnits="userSpaceOnUse" style="mask-type:alpha"><path fill="#D8E0EA" d="M21.273 450.309h190.259c9.817 0 17.759-7.942 17.759-17.758V21.357c0-9.816-7.942-17.758-17.759-17.758H21.273c-9.816 0-17.759 7.942-17.759 17.758V432.55c0 9.816 7.943 17.758 17.759 17.758z"/></mask><g mask="url(#a)"><path fill="#fff" d="M2.114 2.509h228.352v448.948H2.114z"/><path stroke="#64ACFF" stroke-width="2" d="M2.114 2.509h228.352v448.948H2.114z"/><path fill="#fff" d="M14.624 22.758h203.333v350.438H14.624z"/><path fill="#13171C" d="M19.607 46.59a4.212 4.212 0 01-2.158-.565c-.647-.377-1.164-.928-1.55-1.652-.377-.734-.565-1.622-.565-2.665 0-1.034.193-1.917.58-2.651.395-.744.922-1.309 1.578-1.695a4.128 4.128 0 012.173-.594c.6 0 1.13.12 1.594.362a4.22 4.22 0 011.144.84l-.898 1.087a2.829 2.829 0 00-.811-.594 2.06 2.06 0 00-.985-.232c-.512 0-.97.14-1.376.42-.396.27-.71.662-.942 1.173-.222.512-.333 1.126-.333 1.84 0 1.082.236 1.932.71 2.55.473.608 1.105.913 1.897.913.425 0 .802-.087 1.13-.261a3.67 3.67 0 00.898-.71l.899 1.057a4.121 4.121 0 01-1.333 1.029 3.83 3.83 0 01-1.652.348zm4.421-.174v-7.113h1.377l.115 1.26h.058c.251-.463.556-.816.913-1.057.357-.251.724-.377 1.1-.377.339 0 .61.048.812.145l-.29 1.449a2.225 2.225 0 00-.739-.116c-.28 0-.574.11-.883.333-.31.212-.575.589-.797 1.13v4.346h-1.666zm8.305.174a3.66 3.66 0 01-1.782-.435 3.265 3.265 0 01-1.26-1.275c-.31-.56-.464-1.231-.464-2.013 0-.773.155-1.44.464-2 .319-.56.73-.99 1.231-1.289a3.04 3.04 0 011.58-.449c.646 0 1.187.145 1.622.435.434.28.763.676.985 1.188.222.502.333 1.086.333 1.752 0 .348-.024.619-.072.812h-4.52c.077.627.304 1.115.68 1.463.377.347.85.521 1.42.521.31 0 .594-.043.855-.13a4.05 4.05 0 00.797-.391l.565 1.043a5.112 5.112 0 01-1.13.55 3.93 3.93 0 01-1.304.218zm-1.898-4.404h3.158c0-.55-.12-.98-.362-1.29-.241-.318-.603-.478-1.086-.478-.416 0-.787.155-1.116.464-.318.3-.516.734-.594 1.304zm7.752 4.404c-.618 0-1.125-.194-1.52-.58-.387-.386-.58-.888-.58-1.506 0-.763.333-1.352 1-1.768.666-.425 1.728-.714 3.186-.869-.01-.377-.11-.7-.304-.97-.183-.28-.517-.42-1-.42-.347 0-.69.067-1.028.202-.328.135-.652.3-.97.493l-.609-1.116c.396-.25.84-.468 1.333-.652a4.607 4.607 0 011.593-.275c.889 0 1.55.266 1.985.797.444.521.666 1.28.666 2.274v4.216h-1.376l-.116-.782h-.058c-.318.27-.661.497-1.028.68a2.53 2.53 0 01-1.174.276zm.536-1.304c.29 0 .55-.068.783-.203.241-.145.497-.338.767-.58V42.91c-.965.126-1.637.314-2.013.565-.377.242-.565.54-.565.898 0 .319.096.55.29.696.193.144.439.217.738.217zm7.49 1.304c-.821 0-1.405-.237-1.753-.71-.338-.483-.507-1.106-.507-1.869v-3.39h-1.014v-1.246l1.1-.072.204-1.941h1.39v1.94h1.811v1.32h-1.81v3.389c0 .83.333 1.246.999 1.246.125 0 .256-.015.391-.044a3.65 3.65 0 00.348-.116l.29 1.232a4.737 4.737 0 01-.667.174 3.349 3.349 0 01-.782.087zm5.544 0a3.66 3.66 0 01-1.782-.435 3.265 3.265 0 01-1.26-1.275c-.31-.56-.464-1.231-.464-2.013 0-.773.155-1.44.464-2 .318-.56.729-.99 1.231-1.289a3.04 3.04 0 011.58-.449c.646 0 1.187.145 1.622.435.434.28.763.676.985 1.188.222.502.333 1.086.333 1.752 0 .348-.024.619-.073.812h-4.52c.078.627.305 1.115.681 1.463.377.347.85.521 1.42.521.31 0 .594-.043.855-.13a4.05 4.05 0 00.797-.391l.565 1.043a5.112 5.112 0 01-1.13.55 3.93 3.93 0 01-1.304.218zm-1.898-4.404h3.158c0-.55-.12-.98-.362-1.29-.241-.318-.604-.478-1.086-.478-.416 0-.788.155-1.116.464-.319.3-.517.734-.594 1.304zm9.098 7.04v-9.923h1.376l.116.753h.058c.3-.25.633-.468 1-.652a2.589 2.589 0 011.144-.275c.889 0 1.574.328 2.057.985.493.657.74 1.536.74 2.637 0 .81-.146 1.506-.435 2.086-.29.57-.667 1.004-1.13 1.303-.454.3-.947.45-1.478.45-.31 0-.618-.068-.927-.203a4.17 4.17 0 01-.898-.58l.043 1.188v2.231h-1.666zm3.1-4.013c.474 0 .87-.207 1.188-.623.319-.415.478-1.023.478-1.825 0-.715-.12-1.27-.362-1.666-.241-.396-.633-.594-1.173-.594-.503 0-1.024.266-1.565.797v3.317c.26.213.512.367.753.464.242.087.469.13.681.13zm6.631 1.377c-.618 0-1.125-.194-1.52-.58-.387-.386-.58-.888-.58-1.506 0-.763.333-1.352 1-1.768.666-.425 1.728-.714 3.186-.869-.01-.377-.11-.7-.304-.97-.183-.28-.517-.42-1-.42-.347 0-.69.067-1.028.202-.328.135-.652.3-.97.493l-.61-1.116c.397-.25.841-.468 1.334-.652a4.606 4.606 0 011.593-.275c.889 0 1.55.266 1.985.797.444.521.666 1.28.666 2.274v4.216h-1.376l-.116-.782h-.058c-.319.27-.661.497-1.028.68a2.53 2.53 0 01-1.174.276zm.536-1.304c.29 0 .55-.068.782-.203.242-.145.498-.338.768-.58V42.91c-.966.126-1.637.314-2.013.565-.377.242-.565.54-.565.898 0 .319.096.55.29.696.193.144.439.217.738.217zm5.688 4.056c-.193 0-.362-.014-.507-.043a5.378 5.378 0 01-.42-.102l.304-1.304c.068.02.145.039.232.058a.958.958 0 00.275.044c.377 0 .676-.116.898-.348.232-.222.406-.512.522-.87l.13-.448-2.796-7.026h1.695l1.231 3.491c.107.31.208.638.305.985l.318 1.014h.058c.087-.328.174-.661.261-1 .097-.347.188-.68.275-.999l1.072-3.491h1.608l-2.578 7.431c-.3.802-.662 1.435-1.087 1.898-.425.473-1.023.71-1.796.71zm6.694-2.926v-7.113h1.377l.116.97h.057c.3-.318.623-.589.971-.81a2.231 2.231 0 011.203-.334c.521 0 .936.116 1.245.348.319.222.56.53.725.927.338-.367.69-.671 1.057-.913a2.237 2.237 0 011.231-.362c.754 0 1.31.246 1.666.739.358.492.536 1.188.536 2.086v4.462h-1.68V42.17c0-.589-.092-1.004-.275-1.246-.174-.241-.444-.362-.811-.362-.445 0-.942.295-1.493.884v4.969h-1.666V42.17c0-.589-.091-1.004-.275-1.246-.174-.241-.449-.362-.826-.362-.444 0-.941.295-1.492.884v4.969h-1.666zm15.251.174a3.66 3.66 0 01-1.781-.435 3.264 3.264 0 01-1.26-1.275c-.31-.56-.464-1.231-.464-2.013 0-.773.154-1.44.463-2 .319-.56.73-.99 1.232-1.289a3.04 3.04 0 011.579-.449c.647 0 1.188.145 1.622.435.435.28.763.676.985 1.188.222.502.333 1.086.333 1.752 0 .348-.024.619-.072.812h-4.52c.078.627.304 1.115.681 1.463.377.347.85.521 1.42.521.309 0 .594-.043.854-.13.27-.097.536-.227.797-.391l.565 1.043a5.113 5.113 0 01-1.13.55c-.415.145-.85.218-1.304.218zm-1.897-4.404h3.158c0-.55-.12-.98-.362-1.29-.242-.318-.604-.478-1.087-.478-.415 0-.787.155-1.115.464-.319.3-.517.734-.594 1.304zm6.198 4.23v-7.113h1.376l.116.956h.058a5.5 5.5 0 011.043-.797 2.487 2.487 0 011.289-.333c.763 0 1.318.246 1.666.739.348.492.521 1.188.521 2.086v4.462h-1.666V42.17c0-.589-.086-1.004-.26-1.246-.174-.241-.459-.362-.855-.362-.309 0-.584.078-.826.232a5.03 5.03 0 00-.796.652v4.969h-1.666zm10.612.174c-.821 0-1.405-.237-1.753-.71-.338-.483-.507-1.106-.507-1.869v-3.39h-1.014v-1.246l1.101-.072.203-1.941h1.39v1.94h1.811v1.32h-1.811v3.389c0 .83.334 1.246 1 1.246.126 0 .256-.015.391-.044.135-.038.251-.077.348-.116l.29 1.232a4.784 4.784 0 01-.667.174 3.345 3.345 0 01-.782.087zm8.134 0c-.82 0-1.405-.237-1.752-.71-.338-.483-.507-1.106-.507-1.869v-3.39h-1.014v-1.246l1.1-.072.203-1.941h1.391v1.94h1.811v1.32h-1.811v3.389c0 .83.333 1.246 1 1.246.125 0 .255-.015.391-.044.135-.038.251-.077.347-.116l.29 1.232a4.731 4.731 0 01-.666.174 3.353 3.353 0 01-.783.087zm5.414 0c-.589 0-1.14-.145-1.651-.435a3.436 3.436 0 01-1.246-1.275c-.319-.56-.478-1.231-.478-2.013 0-.792.159-1.464.478-2.014.319-.56.734-.985 1.246-1.275a3.213 3.213 0 011.651-.449c.599 0 1.154.15 1.666.45.512.289.927.714 1.246 1.274.319.55.478 1.222.478 2.014 0 .782-.159 1.453-.478 2.013-.319.55-.734.976-1.246 1.275a3.326 3.326 0 01-1.666.435zm0-1.362c.522 0 .932-.217 1.231-.652.3-.435.45-1.004.45-1.71 0-.714-.15-1.289-.45-1.723-.299-.435-.709-.652-1.231-.652-.521 0-.932.217-1.231.652-.29.434-.435 1.009-.435 1.724 0 .705.145 1.274.435 1.709.299.435.71.652 1.231.652zm7.951 1.362c-.589 0-1.14-.145-1.652-.435a3.436 3.436 0 01-1.246-1.275c-.318-.56-.478-1.231-.478-2.013 0-.792.16-1.464.478-2.014.319-.56.734-.985 1.246-1.275a3.22 3.22 0 011.652-.449c.598 0 1.154.15 1.666.45.512.289.927.714 1.245 1.274.319.55.479 1.222.479 2.014 0 .782-.16 1.453-.479 2.013-.318.55-.733.976-1.245 1.275a3.328 3.328 0 01-1.666.435zm0-1.362c.521 0 .932-.217 1.231-.652.299-.435.449-1.004.449-1.71 0-.714-.15-1.289-.449-1.723-.299-.435-.71-.652-1.231-.652-.522 0-.932.217-1.232.652-.289.434-.434 1.009-.434 1.724 0 .705.145 1.274.434 1.709.3.435.71.652 1.232.652zm6.661 1.362c-.589 0-1.009-.18-1.26-.536-.242-.358-.362-.845-.362-1.464v-8.402h1.665v8.49c0 .202.039.347.116.434a.35.35 0 00.247.116h.101c.039-.01.092-.02.159-.03l.218 1.247a2.619 2.619 0 01-.884.145zm4.295 0c-.483 0-.966-.092-1.449-.276a4.812 4.812 0 01-1.245-.71l.782-1.072c.319.242.637.435.956.58.319.145.657.217 1.014.217.386 0 .671-.082.855-.246a.786.786 0 00.275-.608.603.603 0 00-.232-.493 1.875 1.875 0 00-.565-.348 12.61 12.61 0 00-.724-.304 7.839 7.839 0 01-.927-.42 2.404 2.404 0 01-.739-.652c-.193-.27-.29-.604-.29-1 0-.627.232-1.139.696-1.535.463-.396 1.091-.594 1.883-.594.502 0 .951.087 1.347.26.396.175.739.373 1.029.595l-.768 1.014a3.61 3.61 0 00-.768-.435 1.88 1.88 0 00-.797-.174c-.357 0-.623.078-.797.232a.688.688 0 00-.26.55c0 .28.145.493.434.638.29.145.628.285 1.014.42.329.116.647.26.956.435.31.164.565.381.768.652.213.27.319.627.319 1.072 0 .608-.237 1.13-.71 1.564-.473.425-1.159.638-2.057.638z"/><path stroke="#EEE" stroke-linecap="round" stroke-width=".604" d="M217.655 55.546H14.926"/><path fill="#13171C" d="M15.602 73.488v-7.127h2.032c.536 0 1.003.065 1.401.195.398.13.71.352.934.663.225.304.337.717.337 1.239 0 .746-.242 1.3-.728 1.662-.485.362-1.119.543-1.9.543h-1.174v2.825h-.902zm.902-3.564h1.064c.623 0 1.083-.116 1.38-.347.305-.24.457-.612.457-1.12 0-.514-.16-.869-.479-1.064-.31-.203-.778-.304-1.401-.304h-1.021v2.835zm5.915 3.694c-.442 0-.811-.13-1.108-.39-.29-.269-.435-.638-.435-1.109 0-.58.257-1.021.771-1.326.522-.31 1.344-.528 2.467-.651 0-.225-.033-.439-.098-.641a.919.919 0 00-.326-.49c-.152-.13-.373-.195-.663-.195-.304 0-.59.058-.858.174a4.187 4.187 0 00-.717.391l-.348-.62a5.49 5.49 0 01.902-.456 3 3 0 011.173-.228c.645 0 1.112.2 1.402.598.29.391.435.916.435 1.575v3.238h-.74l-.075-.63h-.033c-.246.203-.518.38-.815.532a1.98 1.98 0 01-.934.228zm.26-.717c.254 0 .493-.061.718-.184.224-.123.463-.297.717-.522v-1.467c-.877.109-1.492.272-1.847.49-.348.217-.522.495-.522.836 0 .297.09.514.272.652.181.13.402.195.663.195zm4.085 2.858c-.116 0-.228-.011-.337-.033a2.636 2.636 0 01-.282-.076l.173-.706c.058.014.123.029.196.043a.72.72 0 00.206.033.952.952 0 00.74-.326c.195-.21.347-.478.456-.804l.119-.391-2.119-5.291h.924l1.076 2.922c.08.225.162.468.25.728.094.261.18.515.26.76h.044c.08-.238.155-.488.228-.749.072-.26.145-.507.217-.739l.945-2.922h.87l-1.989 5.715a4.65 4.65 0 01-.445.934 1.941 1.941 0 01-.63.652c-.247.166-.547.25-.902.25zm9.246-2.14c-.464 0-.884-.11-1.26-.326a2.295 2.295 0 01-.892-.946c-.217-.413-.325-.909-.325-1.488 0-.594.115-1.098.347-1.51a2.5 2.5 0 01.935-.946 2.554 2.554 0 011.26-.326c.348 0 .645.062.89.185.254.123.472.268.653.435l-.457.586a2.183 2.183 0 00-.489-.337 1.203 1.203 0 00-.564-.13c-.32 0-.605.087-.859.26a1.71 1.71 0 00-.587.718c-.137.304-.206.66-.206 1.065 0 .6.149 1.09.445 1.467.305.369.7.554 1.185.554.246 0 .474-.051.684-.152.21-.11.395-.236.554-.38l.392.597a2.97 2.97 0 01-.794.5c-.29.116-.593.173-.912.173zm4.412 0c-.558 0-.967-.174-1.228-.522-.261-.355-.391-.87-.391-1.543v-3.346h.901v3.227c0 .492.077.85.229 1.075.159.225.412.337.76.337.275 0 .518-.069.728-.206.217-.145.45-.374.695-.685v-3.748h.891v5.28h-.738l-.076-.826h-.033c-.246.29-.507.522-.782.696a1.76 1.76 0 01-.956.26zm4.367-.131v-5.28h.738l.076.956h.033a2.4 2.4 0 01.663-.793 1.403 1.403 0 011.402-.185l-.175.782a1.417 1.417 0 00-.51-.087c-.225 0-.46.09-.706.272-.24.181-.45.496-.63.945v3.39h-.891zm3.766 0v-5.28h.739l.076.956h.033c.18-.333.402-.598.662-.793.261-.196.54-.294.837-.294.21 0 .398.037.565.109l-.174.782a1.416 1.416 0 00-.51-.087c-.225 0-.46.09-.707.272-.239.181-.449.496-.63.945v3.39h-.89zm5.801.13c-.47 0-.898-.108-1.282-.325a2.42 2.42 0 01-.913-.957c-.224-.412-.336-.905-.336-1.477 0-.58.112-1.076.336-1.489.232-.413.53-.731.891-.956a2.133 2.133 0 011.141-.337c.674 0 1.192.225 1.554.674.37.449.554 1.05.554 1.803 0 .095-.004.189-.01.283 0 .087-.008.163-.023.228h-3.563c.036.558.21 1.003.521 1.337.319.333.732.5 1.239.5.253 0 .485-.037.695-.11a3.28 3.28 0 00.62-.303l.314.586a4.028 4.028 0 01-.77.38 2.679 2.679 0 01-.968.163zm-1.662-3.194h2.825c0-.536-.116-.942-.348-1.217-.225-.282-.543-.423-.956-.423-.37 0-.703.144-1 .434-.29.283-.463.685-.521 1.206zm4.912 3.064v-5.28h.738l.077.76h.032c.254-.253.522-.463.804-.63.283-.174.605-.26.967-.26.558 0 .964.177 1.217.532.26.347.391.858.391 1.532v3.346h-.89v-3.227c0-.492-.08-.85-.24-1.075-.16-.225-.413-.337-.76-.337-.268 0-.511.069-.728.206-.21.138-.45.34-.717.609v3.824h-.891zm8.027.13a2.48 2.48 0 01-1.26-.325 2.294 2.294 0 01-.89-.946c-.218-.413-.327-.909-.327-1.488 0-.594.116-1.098.348-1.51.239-.413.55-.728.934-.946a2.554 2.554 0 011.26-.326c.348 0 .645.062.892.185.253.123.47.268.651.435l-.456.586a2.183 2.183 0 00-.489-.337 1.203 1.203 0 00-.565-.13c-.318 0-.605.087-.858.26a1.71 1.71 0 00-.587.718c-.137.304-.206.66-.206 1.065 0 .6.148 1.09.445 1.467.304.369.7.554 1.185.554.246 0 .474-.051.684-.152.21-.11.395-.236.554-.38l.391.597a2.95 2.95 0 01-.793.5c-.29.116-.594.173-.913.173zm3.02 2.14c-.116 0-.228-.01-.337-.032a2.636 2.636 0 01-.282-.076l.174-.706c.058.014.123.029.195.043a.72.72 0 00.207.033.952.952 0 00.738-.326c.196-.21.348-.478.457-.804l.12-.391-2.12-5.291h.924l1.076 2.922c.08.225.163.468.25.728.094.261.18.515.26.76h.044c.08-.238.156-.488.228-.749.072-.26.145-.507.217-.739l.945-2.922h.87l-1.989 5.715a4.65 4.65 0 01-.445.934 1.941 1.941 0 01-.63.652c-.247.166-.547.25-.902.25z"/><rect width="202.729" height="43.883" x="14.926" y="81.619" stroke="#D2D2D2" stroke-width=".604" rx="5.131"/><path fill="#13171C" d="M26.488 95.573l-.337 1.086h2.14l-.336-1.087c-.13-.398-.254-.793-.37-1.184-.116-.398-.232-.804-.348-1.217h-.043c-.109.413-.22.819-.337 1.217a43.96 43.96 0 01-.37 1.184zm-2.173 3.987l2.412-7.127h1.021l2.412 7.127h-.967l-.674-2.173h-2.596l-.685 2.173h-.923zm7.713.13c-.333 0-.575-.101-.728-.304-.145-.21-.217-.507-.217-.89v-6.672h.891v6.736c0 .138.025.24.076.305.05.058.109.087.174.087h.076a.986.986 0 01.12-.022l.119.673a.767.767 0 01-.206.066 1.75 1.75 0 01-.305.021zm2.77 0c-.334 0-.576-.101-.728-.304-.145-.21-.218-.507-.218-.89v-6.672h.891v6.736c0 .138.026.24.076.305a.227.227 0 00.174.087h.076c.03-.008.069-.015.12-.022l.12.673a.767.767 0 01-.207.066 1.75 1.75 0 01-.304.021zm5.672 0c-.55 0-1.01-.097-1.38-.293a3.469 3.469 0 01-.902-.684l.457-.587c.21.217.456.409.738.576.283.166.627.25 1.033.25.42 0 .764-.116 1.032-.348.268-.232.402-.54.402-.924 0-.275-.073-.514-.218-.717-.137-.21-.369-.373-.695-.489-.319-.116-.753-.174-1.304-.174v-.684c.493 0 .88-.058 1.163-.174.29-.116.496-.271.62-.467a1.21 1.21 0 00.184-.652c0-.34-.109-.608-.326-.804-.21-.196-.5-.293-.87-.293-.289 0-.557.065-.803.195-.24.13-.464.3-.674.51l-.478-.564c.268-.254.565-.46.89-.62.327-.166.693-.25 1.098-.25.602 0 1.098.156 1.489.468.39.304.587.735.587 1.293 0 .42-.116.764-.348 1.032a2.244 2.244 0 01-.913.62v.043c.42.094.775.293 1.065.597.29.297.434.685.434 1.163 0 .406-.1.757-.304 1.054a1.97 1.97 0 01-.825.684c-.34.16-.725.24-1.152.24zm5.542 0c-.696 0-1.242-.311-1.64-.934-.392-.63-.588-1.525-.588-2.684 0-1.166.196-2.053.587-2.662.398-.608.945-.912 1.64-.912.689 0 1.228.304 1.62.912.398.609.597 1.496.597 2.662 0 1.16-.199 2.054-.597 2.684-.392.623-.931.934-1.62.934zm0-.717c.405 0 .731-.228.978-.684.246-.464.369-1.203.369-2.217s-.123-1.742-.37-2.184c-.246-.449-.572-.673-.977-.673-.406 0-.736.224-.989.673-.246.442-.37 1.17-.37 2.184 0 1.014.124 1.753.37 2.217.253.456.583.684.989.684zm5.4.717c-.695 0-1.242-.311-1.64-.934-.391-.63-.587-1.525-.587-2.684 0-1.166.196-2.053.587-2.662.398-.608.945-.912 1.64-.912.688 0 1.228.304 1.62.912.398.609.597 1.496.597 2.662 0 1.16-.2 2.054-.598 2.684-.39.623-.93.934-1.619.934zm0-.717c.406 0 .732-.228.978-.684.246-.464.37-1.203.37-2.217s-.124-1.742-.37-2.184c-.246-.449-.572-.673-.978-.673-.405 0-.735.224-.988.673-.247.442-.37 1.17-.37 2.184 0 1.014.123 1.753.37 2.217.253.456.583.684.988.684zm5.042-.543v-2.119h-1.977v-.673h1.977v-2.119h.707v2.119h1.977v.673h-1.977v2.119h-.707zm8.206 1.26a2.47 2.47 0 01-1.26-.326 2.295 2.295 0 01-.891-.945c-.217-.413-.326-.909-.326-1.488 0-.594.116-1.098.348-1.51a2.49 2.49 0 01.934-.946 2.554 2.554 0 011.26-.326c.348 0 .645.062.891.185.254.123.471.268.652.434l-.456.587a2.183 2.183 0 00-.489-.337 1.203 1.203 0 00-.565-.13c-.319 0-.605.087-.858.26a1.711 1.711 0 00-.587.718 2.555 2.555 0 00-.206 1.065c0 .6.148 1.09.445 1.466.304.37.699.554 1.184.554.247 0 .475-.05.685-.152.21-.108.395-.235.554-.38l.391.598a2.95 2.95 0 01-.793.5c-.29.115-.594.173-.913.173zm4.412 0c-.558 0-.967-.174-1.228-.521-.26-.355-.39-.87-.39-1.543V94.28h.9v3.227c0 .492.077.85.23 1.075.158.225.412.337.76.337.275 0 .518-.069.728-.206.217-.145.449-.374.695-.685V94.28h.89v5.28h-.738l-.076-.826h-.033c-.246.29-.507.522-.782.696-.275.173-.594.26-.956.26zm4.367-.13v-5.28h.739l.076.956h.033c.18-.334.402-.598.662-.793.261-.196.54-.294.837-.294.21 0 .398.036.565.109l-.174.782a1.417 1.417 0 00-.51-.087c-.225 0-.46.09-.707.272-.239.18-.449.496-.63.945v3.39h-.89zm3.767 0v-5.28h.739l.076.956h.032a2.39 2.39 0 01.663-.793c.26-.196.54-.294.837-.294.21 0 .398.036.565.109l-.174.782a1.416 1.416 0 00-.51-.087c-.225 0-.46.09-.707.272-.24.18-.45.496-.63.945v3.39h-.891zm5.8.13c-.47 0-.897-.108-1.281-.326a2.42 2.42 0 01-.913-.956c-.225-.413-.337-.905-.337-1.477 0-.58.112-1.076.337-1.489.232-.413.529-.731.89-.956a2.133 2.133 0 011.142-.337c.673 0 1.191.225 1.553.674.37.449.554 1.05.554 1.803 0 .095-.003.189-.01.283 0 .087-.008.163-.022.228h-3.564c.036.558.21 1.003.522 1.336.318.334.731.5 1.238.5.254 0 .486-.036.696-.108.217-.08.423-.181.619-.305l.315.587a4.028 4.028 0 01-.771.38 2.679 2.679 0 01-.967.163zm-1.662-3.194h2.825c0-.536-.116-.942-.347-1.217-.225-.282-.544-.424-.957-.424-.369 0-.702.145-1 .435-.289.282-.463.684-.52 1.206zm4.912 3.064v-5.28h.74l.075.76h.033c.253-.253.521-.463.804-.63.282-.174.605-.26.967-.26.557 0 .963.177 1.217.532.26.347.39.858.39 1.532v3.346h-.89v-3.227c0-.492-.08-.851-.24-1.076-.159-.224-.412-.336-.76-.336-.268 0-.51.068-.728.206-.21.138-.449.34-.717.609v3.824h-.89zm8.028.13c-.464 0-.884-.108-1.26-.326a2.295 2.295 0 01-.891-.945c-.218-.413-.326-.909-.326-1.488 0-.594.116-1.098.347-1.51a2.5 2.5 0 01.935-.946 2.554 2.554 0 011.26-.326c.348 0 .645.062.891.185.254.123.471.268.652.434l-.456.587a2.183 2.183 0 00-.49-.337 1.203 1.203 0 00-.564-.13 1.49 1.49 0 00-.859.26 1.71 1.71 0 00-.586.718 2.555 2.555 0 00-.207 1.065c0 .6.149 1.09.446 1.466.304.37.699.554 1.184.554.246 0 .475-.05.685-.152.21-.108.394-.235.554-.38l.39.598c-.238.21-.503.376-.792.5-.29.115-.594.173-.913.173zm2.869-.13v-5.28h.89v5.28h-.89zm.456-6.367a.636.636 0 01-.434-.152.587.587 0 01-.163-.435.57.57 0 01.163-.423.61.61 0 01.434-.163c.174 0 .315.054.424.163.116.108.174.25.174.423a.567.567 0 01-.174.435.596.596 0 01-.424.152zm4.358 6.497a2.55 2.55 0 01-1.282-.326 2.42 2.42 0 01-.913-.956c-.224-.413-.336-.905-.336-1.477 0-.58.112-1.076.336-1.489a2.59 2.59 0 01.891-.956 2.134 2.134 0 011.141-.337c.674 0 1.192.225 1.554.674.369.449.554 1.05.554 1.803 0 .095-.004.189-.011.283 0 .087-.007.163-.022.228h-3.563c.036.558.21 1.003.521 1.336.319.334.732.5 1.239.5.253 0 .485-.036.695-.108.217-.08.424-.181.619-.305l.316.587a4.04 4.04 0 01-.772.38 2.677 2.677 0 01-.967.163zm-1.662-3.194h2.825c0-.536-.116-.942-.348-1.217-.225-.282-.543-.424-.956-.424-.37 0-.703.145-1 .435-.289.282-.463.684-.521 1.206zm6.292 3.194c-.377 0-.736-.069-1.076-.206a3.817 3.817 0 01-.891-.522l.445-.597c.232.18.471.333.718.456.246.116.525.174.836.174.348 0 .609-.08.782-.24a.787.787 0 00.261-.586.62.62 0 00-.184-.456 1.323 1.323 0 00-.457-.304 6.537 6.537 0 00-.565-.24 9.247 9.247 0 01-.728-.314 1.8 1.8 0 01-.586-.468c-.153-.195-.229-.441-.229-.738 0-.428.16-.783.478-1.065.326-.29.775-.435 1.348-.435.326 0 .63.058.912.174.283.116.525.257.728.424l-.434.565a2.848 2.848 0 00-.565-.337 1.563 1.563 0 00-.641-.13c-.334 0-.58.076-.739.228a.73.73 0 00-.228.532c0 .167.054.304.163.413a1.6 1.6 0 00.423.272l.555.228c.253.094.503.203.749.326.246.116.449.275.609.478.166.195.25.46.25.793 0 .282-.077.543-.229.782a1.537 1.537 0 01-.652.576c-.282.145-.633.217-1.053.217z"/><path fill="#A4A4A4" d="M26.73 113.647a1.99 1.99 0 01-1.064-.29 2.083 2.083 0 01-.74-.847c-.178-.367-.267-.809-.267-1.326 0-.512.092-.951.275-1.318a2.05 2.05 0 01.753-.848 2.003 2.003 0 011.08-.297c.29 0 .545.061.767.182.223.115.401.251.536.405l-.326.391a1.548 1.548 0 00-.427-.326 1.17 1.17 0 00-.543-.123c-.3 0-.563.08-.79.239a1.532 1.532 0 00-.521.659c-.12.285-.181.626-.181 1.022s.06.741.18 1.035c.122.29.29.515.508.674.222.159.483.239.782.239.227 0 .43-.048.609-.145a1.86 1.86 0 00.492-.391l.333.377a2.12 2.12 0 01-.637.507 1.79 1.79 0 01-.819.181zm2.914 0c-.222 0-.384-.068-.485-.203-.096-.14-.145-.338-.145-.594v-4.447h.594v4.491c0 .091.017.159.05.202a.15.15 0 00.117.058h.05a.855.855 0 01.08-.014l.08.449a.501.501 0 01-.138.043c-.053.01-.12.015-.203.015zm1.216-.087v-3.52h.594v3.52h-.594zm.305-4.245a.422.422 0 01-.29-.101.391.391 0 01-.109-.29.38.38 0 01.109-.282.405.405 0 01.29-.109.38.38 0 01.282.109.368.368 0 01.116.282.378.378 0 01-.116.29.395.395 0 01-.282.101zm2.905 4.332c-.314 0-.599-.073-.855-.217a1.619 1.619 0 01-.608-.638c-.15-.275-.225-.603-.225-.985 0-.386.075-.717.225-.992a1.73 1.73 0 01.594-.638c.241-.149.495-.224.76-.224.45 0 .794.149 1.036.449.246.299.37.7.37 1.202 0 .063-.003.126-.008.189a.707.707 0 01-.014.152h-2.376c.024.372.14.668.347.891.213.222.488.333.826.333.17 0 .324-.024.464-.073.145-.053.282-.12.413-.202l.21.391c-.15.096-.321.181-.515.253a1.774 1.774 0 01-.644.109zm-1.108-2.13h1.883c0-.357-.077-.627-.232-.811-.15-.188-.362-.282-.637-.282a.932.932 0 00-.667.289c-.193.189-.309.457-.347.804zm3.274 2.043v-3.52h.493l.05.507h.022c.17-.169.348-.309.536-.42.188-.116.403-.174.645-.174.372 0 .642.118.811.355.174.232.26.572.26 1.021v2.231h-.593v-2.151c0-.329-.053-.568-.16-.717-.106-.15-.275-.225-.506-.225a.886.886 0 00-.486.138c-.14.091-.3.227-.478.405v2.55h-.594zm5.07.087c-.377 0-.64-.109-.79-.326-.145-.217-.217-.5-.217-.848v-1.948h-.522v-.449l.55-.036.073-.985h.5v.985h.949v.485h-.95v1.956c0 .217.04.386.117.507.082.116.224.174.427.174.063 0 .13-.01.203-.029l.196-.066.116.449a2.474 2.474 0 01-.32.087 1.316 1.316 0 01-.332.044zm4.18 0a1.66 1.66 0 01-.84-.217 1.528 1.528 0 01-.595-.631c-.145-.275-.217-.606-.217-.992 0-.396.077-.731.232-1.007.16-.275.367-.485.623-.63a1.7 1.7 0 01.84-.217c.232 0 .43.041.594.123.169.082.314.179.434.29l-.304.391a1.45 1.45 0 00-.326-.225.802.802 0 00-.376-.087.988.988 0 00-.573.174 1.144 1.144 0 00-.39.478 1.71 1.71 0 00-.138.71c0 .401.099.727.297.978a.975.975 0 00.79.369c.163 0 .316-.033.456-.101a1.73 1.73 0 00.369-.254l.26.399c-.159.14-.335.251-.528.333a1.629 1.629 0 01-.608.116zm2.653 0c-.295 0-.541-.087-.74-.261-.192-.179-.289-.425-.289-.739 0-.386.172-.681.514-.883.348-.208.896-.353 1.645-.435 0-.15-.022-.292-.066-.427a.61.61 0 00-.217-.326c-.101-.087-.249-.131-.442-.131a1.43 1.43 0 00-.572.116 2.747 2.747 0 00-.478.261l-.232-.413c.164-.106.365-.208.601-.304a1.99 1.99 0 01.783-.152c.43 0 .74.133.934.398.193.261.29.611.29 1.05v2.159h-.493l-.05-.42h-.022a3.048 3.048 0 01-.543.355 1.328 1.328 0 01-.623.152zm.173-.478a.98.98 0 00.479-.123c.15-.082.309-.198.478-.348v-.978c-.585.073-.995.181-1.232.326-.231.145-.347.331-.347.558 0 .198.06.343.18.434a.74.74 0 00.443.131zm2.665.391v-3.52h.493l.05.507h.022c.17-.169.348-.309.536-.42.189-.116.403-.174.645-.174.372 0 .642.118.811.355.174.232.261.572.261 1.021v2.231h-.594v-2.151c0-.329-.053-.568-.16-.717-.106-.15-.275-.225-.506-.225a.887.887 0 00-.486.138c-.14.091-.299.227-.478.405v2.55h-.594zm6.802.087c-.309 0-.589-.073-.84-.217a1.528 1.528 0 01-.594-.631c-.145-.275-.217-.606-.217-.992 0-.396.077-.731.232-1.007.159-.275.367-.485.623-.63.26-.145.54-.217.84-.217.231 0 .43.041.594.123.169.082.313.179.434.29l-.304.391a1.453 1.453 0 00-.326-.225.801.801 0 00-.377-.087.988.988 0 00-.572.174 1.144 1.144 0 00-.39.478 1.69 1.69 0 00-.139.71c0 .401.1.727.297.978a.975.975 0 00.79.369c.164 0 .316-.033.456-.101.14-.073.264-.157.37-.254l.26.399c-.159.14-.335.251-.528.333a1.629 1.629 0 01-.609.116zm1.913-.087v-5.157h.594v1.405l-.022.724a3.16 3.16 0 01.529-.405c.188-.116.403-.174.645-.174.371 0 .642.118.81.355.175.232.262.572.262 1.021v2.231h-.594v-2.151c0-.329-.054-.568-.16-.717-.106-.15-.275-.225-.507-.225a.886.886 0 00-.485.138c-.14.091-.3.227-.478.405v2.55h-.594zm5.309.087a1.59 1.59 0 01-.804-.217 1.643 1.643 0 01-.601-.631c-.15-.275-.225-.606-.225-.992 0-.396.075-.731.225-1.007a1.65 1.65 0 01.6-.63c.252-.145.52-.217.805-.217a1.556 1.556 0 011.398.847c.154.276.231.611.231 1.007 0 .386-.077.717-.231.992-.15.276-.348.486-.594.631a1.566 1.566 0 01-.804.217zm0-.493a.868.868 0 00.731-.369c.189-.251.283-.577.283-.978 0-.406-.094-.734-.283-.985a.863.863 0 00-.731-.377c-.3 0-.544.126-.732.377-.188.251-.282.579-.282.985 0 .401.094.727.282.978a.88.88 0 00.732.369zm3.926.493a1.59 1.59 0 01-.804-.217 1.643 1.643 0 01-.602-.631c-.15-.275-.224-.606-.224-.992 0-.396.075-.731.224-1.007a1.578 1.578 0 011.406-.847 1.556 1.556 0 011.397.847c.155.276.232.611.232 1.007 0 .386-.077.717-.231.992-.15.276-.348.486-.594.631a1.566 1.566 0 01-.804.217zm0-.493a.868.868 0 00.731-.369c.189-.251.283-.577.283-.978 0-.406-.094-.734-.283-.985a.863.863 0 00-.731-.377c-.3 0-.544.126-.732.377-.188.251-.282.579-.282.985 0 .401.094.727.282.978a.88.88 0 00.732.369zm3.476.493a1.89 1.89 0 01-.717-.138 2.518 2.518 0 01-.594-.347l.297-.399c.155.121.314.222.478.304.164.078.35.116.558.116.232 0 .406-.053.522-.159a.526.526 0 00.173-.391.412.412 0 00-.123-.304.868.868 0 00-.304-.203 4.638 4.638 0 00-.377-.16 5.608 5.608 0 01-.485-.21 1.206 1.206 0 01-.391-.311.779.779 0 01-.152-.493c0-.285.106-.521.319-.709.217-.194.516-.29.898-.29.217 0 .42.038.608.116.188.077.35.171.485.282l-.29.377a1.884 1.884 0 00-.376-.225 1.04 1.04 0 00-.427-.087c-.222 0-.387.051-.493.152a.488.488 0 00-.152.355c0 .111.036.203.109.276.072.067.166.128.282.181l.37.152c.169.063.335.135.5.217.163.077.299.184.405.319.111.13.167.306.167.529a.95.95 0 01-.153.521 1.035 1.035 0 01-.434.384c-.188.097-.423.145-.703.145zm3.542 0c-.314 0-.599-.073-.855-.217a1.618 1.618 0 01-.608-.638c-.15-.275-.225-.603-.225-.985 0-.386.075-.717.225-.992a1.72 1.72 0 01.594-.638c.241-.149.495-.224.76-.224.45 0 .794.149 1.036.449.246.299.37.7.37 1.202 0 .063-.003.126-.008.189a.707.707 0 01-.014.152h-2.376c.024.372.14.668.348.891.212.222.487.333.825.333.17 0 .324-.024.464-.073.145-.053.282-.12.413-.202l.21.391c-.15.096-.321.181-.514.253a1.774 1.774 0 01-.645.109zm-1.108-2.13h1.883c0-.357-.077-.627-.232-.811-.15-.188-.362-.282-.637-.282a.932.932 0 00-.667.289c-.193.189-.309.457-.347.804zm5.536 2.13c-.295 0-.541-.087-.74-.261-.192-.179-.289-.425-.289-.739 0-.386.171-.681.514-.883.348-.208.896-.353 1.644-.435 0-.15-.021-.292-.065-.427a.61.61 0 00-.217-.326c-.101-.087-.249-.131-.442-.131a1.43 1.43 0 00-.572.116 2.743 2.743 0 00-.478.261l-.232-.413c.164-.106.365-.208.601-.304a1.99 1.99 0 01.783-.152c.43 0 .74.133.934.398.193.261.29.611.29 1.05v2.159h-.493l-.05-.42h-.022a3.052 3.052 0 01-.543.355 1.328 1.328 0 01-.623.152zm.173-.478a.98.98 0 00.478-.123c.15-.082.31-.198.478-.348v-.978c-.584.073-.994.181-1.23.326-.233.145-.349.331-.349.558 0 .198.06.343.182.434.12.087.268.131.441.131zm2.665.391v-3.52h.493l.05.507h.022c.17-.169.348-.309.536-.42.189-.116.403-.174.645-.174.372 0 .642.118.811.355.174.232.26.572.26 1.021v2.231h-.593v-2.151c0-.329-.053-.568-.16-.717-.106-.15-.275-.225-.507-.225a.887.887 0 00-.485.138c-.14.091-.3.227-.478.405v2.55h-.594zm4.02 1.514a1.1 1.1 0 01-.225-.022 1.524 1.524 0 01-.189-.051l.116-.47.13.029a.634.634 0 00.63-.196c.131-.14.233-.319.305-.536l.08-.261-1.413-3.527h.616l.717 1.948c.053.15.109.312.167.485.063.174.12.343.173.507h.03c.053-.159.103-.325.152-.499.048-.174.096-.338.145-.493l.63-1.948h.58l-1.326 3.81a3.136 3.136 0 01-.297.623 1.294 1.294 0 01-.42.434 1.049 1.049 0 01-.602.167zm5.693-1.427a1.89 1.89 0 01-.718-.138 2.516 2.516 0 01-.594-.347l.297-.399c.155.121.314.222.478.304.165.078.35.116.558.116.232 0 .406-.053.522-.159a.525.525 0 00.174-.391.412.412 0 00-.124-.304.87.87 0 00-.304-.203 4.625 4.625 0 00-.376-.16 5.635 5.635 0 01-.486-.21 1.206 1.206 0 01-.39-.311.779.779 0 01-.153-.493c0-.285.106-.521.319-.709.217-.194.516-.29.898-.29.217 0 .42.038.608.116.189.077.35.171.486.282l-.29.377a1.887 1.887 0 00-.377-.225 1.04 1.04 0 00-.427-.087c-.222 0-.386.051-.493.152a.488.488 0 00-.152.355c0 .111.036.203.109.276.072.067.166.128.282.181l.37.152c.169.063.335.135.5.217.164.077.299.184.405.319.111.13.167.306.167.529a.95.95 0 01-.152.521 1.035 1.035 0 01-.435.384c-.188.097-.422.145-.703.145zm3.143 0c-.372 0-.645-.116-.819-.348-.174-.236-.26-.579-.26-1.028v-2.231h.6v2.151c0 .328.051.567.153.717.106.15.275.225.507.225a.864.864 0 00.485-.138c.145-.097.3-.249.464-.456v-2.499h.593v3.52h-.492l-.05-.551h-.022a2.294 2.294 0 01-.522.464 1.167 1.167 0 01-.637.174zm2.911 1.398v-5.005h.493l.05.405h.022c.16-.135.333-.251.522-.347a1.32 1.32 0 01.601-.145c.454 0 .799.164 1.035.492.237.324.355.758.355 1.304 0 .396-.072.737-.217 1.021-.14.285-.326.503-.558.652-.227.15-.475.225-.746.225a1.2 1.2 0 01-.492-.109 2.477 2.477 0 01-.486-.297l.015.616v1.188h-.594zm1.456-1.898c.29 0 .529-.123.717-.369.193-.251.29-.594.29-1.029 0-.386-.073-.698-.218-.934-.14-.242-.376-.362-.709-.362a.972.972 0 00-.457.123c-.15.082-.311.2-.485.355v1.847c.16.135.314.231.464.289.149.054.282.08.398.08zm2.562 1.898v-5.005h.492l.051.405h.022a2.7 2.7 0 01.521-.347c.193-.097.394-.145.601-.145.454 0 .8.164 1.036.492.237.324.355.758.355 1.304 0 .396-.072.737-.217 1.021-.14.285-.326.503-.558.652-.227.15-.476.225-.746.225a1.2 1.2 0 01-.492-.109 2.462 2.462 0 01-.486-.297l.015.616v1.188h-.594zm1.456-1.898c.289 0 .528-.123.717-.369.193-.251.289-.594.289-1.029 0-.386-.072-.698-.217-.934-.14-.242-.376-.362-.71-.362a.97.97 0 00-.456.123c-.15.082-.311.2-.485.355v1.847c.159.135.314.231.463.289.15.054.283.08.399.08zm3.93.5c-.284 0-.552-.073-.804-.217a1.648 1.648 0 01-.601-.631c-.149-.275-.224-.606-.224-.992 0-.396.075-.731.224-1.007.155-.275.355-.485.601-.63.252-.145.52-.217.804-.217a1.555 1.555 0 011.398.847c.155.276.232.611.232 1.007 0 .386-.077.717-.232.992a1.583 1.583 0 01-.594.631 1.564 1.564 0 01-.804.217zm0-.493a.867.867 0 00.732-.369c.188-.251.283-.577.283-.978 0-.406-.095-.734-.283-.985a.862.862 0 00-.732-.377.874.874 0 00-.731.377c-.188.251-.283.579-.283.985 0 .401.095.727.283.978a.88.88 0 00.731.369zm2.557.406v-3.52h.493l.051.637h.021c.121-.222.268-.398.442-.529a.937.937 0 01.934-.123l-.115.522a1.263 1.263 0 00-.16-.044 1 1 0 00-.181-.014c-.15 0-.306.06-.471.181-.159.121-.299.331-.42.63v2.26h-.594zm3.62.087c-.377 0-.64-.109-.79-.326-.145-.217-.217-.5-.217-.848v-1.948h-.522v-.449l.551-.036.072-.985h.5v.985h.949v.485h-.949v1.956c0 .217.039.386.116.507.082.116.224.174.427.174.063 0 .131-.01.203-.029l.196-.066.115.449a2.427 2.427 0 01-.318.087 1.313 1.313 0 01-.333.044zm2.667 0c-.314 0-.599-.073-.855-.217a1.612 1.612 0 01-.608-.638c-.15-.275-.225-.603-.225-.985 0-.386.075-.717.225-.992a1.72 1.72 0 01.594-.638c.241-.149.494-.224.76-.224.449 0 .794.149 1.036.449.246.299.369.7.369 1.202 0 .063-.002.126-.007.189a.757.757 0 01-.014.152h-2.376c.024.372.14.668.347.891.213.222.488.333.826.333.169 0 .324-.024.464-.073.145-.053.282-.12.413-.202l.21.391c-.15.096-.321.181-.515.253a1.771 1.771 0 01-.644.109zm-1.109-2.13h1.884c0-.357-.078-.627-.232-.811-.15-.188-.362-.282-.637-.282a.932.932 0 00-.667.289c-.193.189-.309.457-.348.804zm4.477 2.13c-.439 0-.791-.159-1.057-.478-.266-.324-.398-.778-.398-1.362 0-.381.07-.71.21-.985.145-.28.333-.495.565-.645.236-.149.487-.224.753-.224.203 0 .379.036.529.108.149.073.301.172.456.297l-.029-.601v-1.354h.601v5.157h-.492l-.051-.413h-.022a2.1 2.1 0 01-.478.355 1.235 1.235 0 01-.587.145zm.131-.5c.309 0 .608-.162.898-.485v-1.84a1.417 1.417 0 00-.435-.282 1.054 1.054 0 00-.42-.087.843.843 0 00-.514.173 1.17 1.17 0 00-.362.471 1.654 1.654 0 00-.138.703c0 .42.085.751.254.992.169.237.408.355.717.355zm5.526.5c-.309 0-.589-.073-.841-.217a1.53 1.53 0 01-.594-.631c-.144-.275-.217-.606-.217-.992 0-.396.077-.731.232-1.007.159-.275.367-.485.623-.63.261-.145.541-.217.84-.217.232 0 .43.041.594.123.169.082.314.179.435.29l-.305.391a1.44 1.44 0 00-.326-.225.799.799 0 00-.376-.087.986.986 0 00-.572.174 1.142 1.142 0 00-.392.478c-.091.203-.137.44-.137.71 0 .401.099.727.297.978a.975.975 0 00.789.369c.165 0 .317-.033.457-.101a1.72 1.72 0 00.369-.254l.261.399c-.16.14-.336.251-.529.333a1.627 1.627 0 01-.608.116zm1.912-.087v-3.52h.493l.05.637h.022c.121-.222.268-.398.442-.529a.937.937 0 01.934-.123l-.115.522a1.31 1.31 0 00-.16-.044 1 1 0 00-.181-.014c-.15 0-.307.06-.471.181-.159.121-.299.331-.42.63v2.26h-.594zm2.753 1.514c-.077 0-.152-.007-.224-.022a1.521 1.521 0 01-.189-.051l.116-.47.131.029a.491.491 0 00.137.021.636.636 0 00.493-.217c.13-.14.232-.319.304-.536l.08-.261-1.413-3.527h.616l.717 1.948c.053.15.109.312.167.485.062.174.12.343.173.507h.029c.053-.159.104-.325.152-.499.049-.174.097-.338.145-.493l.631-1.948h.579l-1.326 3.81a3.125 3.125 0 01-.297.623 1.294 1.294 0 01-.42.434 1.047 1.047 0 01-.601.167zm3.323-.029v-5.005h.493l.051.405h.021c.16-.135.334-.251.522-.347a1.32 1.32 0 01.601-.145c.454 0 .799.164 1.036.492.236.324.355.758.355 1.304 0 .396-.073.737-.218 1.021-.14.285-.325.503-.557.652-.227.15-.476.225-.746.225-.165 0-.329-.036-.493-.109a2.485 2.485 0 01-.485-.297l.014.616v1.188h-.594zm1.456-1.898c.29 0 .529-.123.717-.369.193-.251.29-.594.29-1.029 0-.386-.072-.698-.217-.934-.14-.242-.377-.362-.71-.362a.965.965 0 00-.456.123c-.15.082-.312.2-.486.355v1.847c.16.135.314.231.464.289.15.054.282.08.398.08zm3.55.5c-.377 0-.64-.109-.789-.326-.145-.217-.218-.5-.218-.848v-1.948h-.521v-.449l.55-.036.073-.985h.499v.985h.949v.485h-.949v1.956c0 .217.039.386.116.507.082.116.225.174.428.174.062 0 .13-.01.203-.029l.195-.066.116.449a2.488 2.488 0 01-.319.087 1.313 1.313 0 01-.333.044zm2.609 0a1.59 1.59 0 01-.804-.217 1.648 1.648 0 01-.601-.631c-.15-.275-.224-.606-.224-.992 0-.396.074-.731.224-1.007.155-.275.355-.485.601-.63a1.58 1.58 0 01.804-.217 1.555 1.555 0 011.398.847c.155.276.232.611.232 1.007 0 .386-.077.717-.232.992a1.59 1.59 0 01-.594.631 1.564 1.564 0 01-.804.217zm0-.493a.87.87 0 00.732-.369c.188-.251.282-.577.282-.978 0-.406-.094-.734-.282-.985a.865.865 0 00-.732-.377.874.874 0 00-.731.377c-.189.251-.283.579-.283.985 0 .401.094.727.283.978a.88.88 0 00.731.369zm4.109.406v-3.035h-.479v-.449l.479-.036v-.558c0-.357.082-.64.246-.847.169-.213.43-.319.782-.319.111 0 .217.012.319.036.101.019.19.046.268.08l-.131.456a.969.969 0 00-.398-.087c-.328 0-.493.227-.493.681v.558h.747v.485h-.747v3.035h-.593zm3.311.087a1.59 1.59 0 01-.804-.217 1.648 1.648 0 01-.601-.631c-.15-.275-.224-.606-.224-.992 0-.396.074-.731.224-1.007.155-.275.355-.485.601-.63a1.58 1.58 0 01.804-.217 1.555 1.555 0 011.398.847c.155.276.232.611.232 1.007 0 .386-.077.717-.232.992a1.583 1.583 0 01-.594.631 1.564 1.564 0 01-.804.217zm0-.493a.868.868 0 00.732-.369c.188-.251.282-.577.282-.978 0-.406-.094-.734-.282-.985a.863.863 0 00-.732-.377.874.874 0 00-.731.377c-.189.251-.283.579-.283.985 0 .401.094.727.283.978a.88.88 0 00.731.369zm2.557.406v-3.52h.493l.05.637h.022c.121-.222.268-.398.442-.529a.937.937 0 01.934-.123l-.116.522a1.299 1.299 0 00-.159-.044 1.008 1.008 0 00-.181-.014c-.15 0-.307.06-.471.181-.159.121-.299.331-.42.63v2.26h-.594zm3.961 1.485v-5.005h.493l.051.405h.021c.16-.135.333-.251.522-.347a1.32 1.32 0 01.601-.145c.454 0 .799.164 1.036.492.236.324.355.758.355 1.304 0 .396-.073.737-.218 1.021-.14.285-.326.503-.557.652-.227.15-.476.225-.746.225-.165 0-.329-.036-.493-.109a2.485 2.485 0 01-.485-.297l.014.616v1.188h-.594zm1.456-1.898c.29 0 .529-.123.717-.369.193-.251.29-.594.29-1.029 0-.386-.072-.698-.217-.934-.14-.242-.377-.362-.71-.362a.965.965 0 00-.456.123c-.15.082-.312.2-.486.355v1.847c.16.135.314.231.464.289.149.054.282.08.398.08zm3.274.5a1.08 1.08 0 01-.739-.261c-.193-.179-.289-.425-.289-.739 0-.386.171-.681.514-.883.348-.208.896-.353 1.644-.435 0-.15-.022-.292-.065-.427a.612.612 0 00-.217-.326c-.102-.087-.249-.131-.442-.131-.203 0-.394.039-.572.116a2.732 2.732 0 00-.478.261l-.232-.413c.164-.106.364-.208.601-.304.241-.102.502-.152.782-.152.43 0 .741.133.935.398.193.261.289.611.289 1.05v2.159h-.492l-.051-.42h-.022a3.043 3.043 0 01-.543.355 1.325 1.325 0 01-.623.152zm.174-.478a.98.98 0 00.478-.123c.15-.082.309-.198.478-.348v-.978c-.584.073-.995.181-1.231.326-.232.145-.348.331-.348.558 0 .198.061.343.181.434a.737.737 0 00.442.131zm2.723 1.905c-.077 0-.152-.007-.225-.022a1.553 1.553 0 01-.188-.051l.116-.47.13.029a.632.632 0 00.63-.196c.131-.14.232-.319.305-.536l.079-.261-1.412-3.527h.616l.717 1.948c.053.15.108.312.166.485.063.174.121.343.174.507h.029c.053-.159.104-.325.152-.499s.097-.338.145-.493l.63-1.948h.58l-1.326 3.81a3.125 3.125 0 01-.297.623 1.294 1.294 0 01-.42.434 1.049 1.049 0 01-.601.167zm3.323-1.514v-3.52h.493l.05.507h.022c.155-.169.324-.309.507-.42a1.08 1.08 0 01.587-.174c.27 0 .48.06.63.181.154.116.268.28.34.492.184-.198.37-.359.558-.485.188-.125.389-.188.601-.188.362 0 .63.118.804.355.179.232.268.572.268 1.021v2.231h-.594v-2.151c0-.329-.053-.568-.159-.717-.106-.15-.27-.225-.493-.225-.26 0-.555.181-.883.543v2.55h-.594v-2.151c0-.329-.053-.568-.16-.717-.106-.15-.272-.225-.499-.225-.261 0-.556.181-.884.543v2.55h-.594zm7.432.087a1.71 1.71 0 01-.854-.217 1.621 1.621 0 01-.609-.638c-.149-.275-.224-.603-.224-.985 0-.386.075-.717.224-.992.155-.275.353-.488.594-.638.242-.149.495-.224.761-.224.449 0 .794.149 1.035.449.247.299.37.7.37 1.202 0 .063-.003.126-.007.189a.686.686 0 01-.015.152h-2.376c.025.372.14.668.348.891.213.222.488.333.826.333.169 0 .323-.024.463-.073.145-.053.283-.12.413-.202l.21.391a2.675 2.675 0 01-.514.253 1.773 1.773 0 01-.645.109zm-1.108-2.13h1.883c0-.357-.077-.627-.231-.811-.15-.188-.363-.282-.638-.282a.932.932 0 00-.666.289c-.193.189-.309.457-.348.804zm3.275 2.043v-3.52h.492l.051.507h.022c.169-.169.347-.309.536-.42.188-.116.403-.174.644-.174.372 0 .643.118.812.355.173.232.26.572.26 1.021v2.231h-.594v-2.151c0-.329-.053-.568-.159-.717-.106-.15-.275-.225-.507-.225a.885.885 0 00-.485.138c-.14.091-.3.227-.478.405v2.55h-.594zm5.069.087c-.377 0-.64-.109-.789-.326-.145-.217-.218-.5-.218-.848v-1.948h-.521v-.449l.55-.036.073-.985h.5v.985h.948v.485h-.948v1.956c0 .217.038.386.115.507.083.116.225.174.428.174.063 0 .13-.01.203-.029l.195-.066.116.449a2.488 2.488 0 01-.319.087 1.313 1.313 0 01-.333.044z"/><path fill="#D2D2D2" d="M205.721 105.237c-.021-.02-.111-.098-.185-.17-.464-.422-1.223-1.522-1.455-2.099-.037-.087-.116-.308-.121-.426a.7.7 0 01.079-.325.685.685 0 01.327-.288c.095-.036.379-.092.384-.092.312-.057.818-.088 1.377-.088.533 0 1.018.031 1.334.077.005.006.359.062.48.124a.647.647 0 01.359.571v.021c-.006.154-.143.478-.148.478-.233.545-.955 1.62-1.435 2.053 0 0-.123.121-.2.174a.643.643 0 01-.385.124.673.673 0 01-.411-.134z"/><path fill="#13171C" d="M15.602 144.047v-7.128h2.032c.536 0 1.003.065 1.401.196.398.13.71.351.934.663.225.304.337.717.337 1.238 0 .746-.242 1.3-.728 1.663-.485.362-1.119.543-1.9.543h-1.174v2.825h-.902zm.902-3.564h1.064c.623 0 1.083-.116 1.38-.348.305-.239.457-.612.457-1.119 0-.514-.16-.869-.479-1.065-.31-.202-.778-.304-1.401-.304h-1.021v2.836zm5.165 3.564v-5.281h.739l.076.956h.032a2.41 2.41 0 01.663-.793c.26-.195.54-.293.837-.293.21 0 .398.036.565.109l-.174.782a1.375 1.375 0 00-.51-.087c-.225 0-.46.09-.707.272-.24.181-.45.496-.63.945v3.39h-.891zm3.767 0v-5.281h.89v5.281h-.89zm.456-6.367a.638.638 0 01-.435-.152.59.59 0 01-.163-.435c0-.174.055-.315.163-.424a.614.614 0 01.435-.163.576.576 0 01.597.587.569.569 0 01-.173.435.598.598 0 01-.424.152zm4.303 6.497a2.48 2.48 0 01-1.26-.326 2.292 2.292 0 01-.89-.945c-.218-.413-.327-.909-.327-1.489 0-.594.116-1.097.348-1.51.239-.413.55-.728.934-.945a2.557 2.557 0 011.26-.326c.348 0 .645.061.891.185.254.123.471.268.652.434l-.456.587a2.174 2.174 0 00-.489-.337 1.202 1.202 0 00-.565-.13c-.319 0-.605.087-.858.26a1.713 1.713 0 00-.587.718 2.56 2.56 0 00-.206 1.064c0 .602.148 1.09.445 1.467.304.369.7.554 1.184.554.247 0 .475-.051.685-.152a2.59 2.59 0 00.554-.38l.391.597a2.93 2.93 0 01-.793.5c-.29.116-.594.174-.913.174zm4.776 0a2.56 2.56 0 01-1.282-.326 2.415 2.415 0 01-.913-.956c-.224-.413-.336-.905-.336-1.478 0-.579.112-1.075.337-1.488a2.58 2.58 0 01.89-.956 2.129 2.129 0 011.141-.337c.674 0 1.192.224 1.554.674.37.449.554 1.05.554 1.803 0 .094-.004.188-.01.283 0 .087-.008.163-.023.228H33.32c.036.557.21 1.003.521 1.336.319.333.732.5 1.239.5.253 0 .485-.036.695-.109a3.24 3.24 0 00.62-.304l.315.587a4.04 4.04 0 01-.772.38 2.672 2.672 0 01-.967.163zm-1.662-3.194h2.825c0-.536-.116-.942-.348-1.217-.224-.283-.543-.424-.956-.424-.37 0-.703.145-1 .435-.29.282-.463.684-.521 1.206z"/><rect width="202.729" height="28.883" x="14.926" y="152.177" stroke="#D2D2D2" stroke-width=".604" rx="5.131"/><path fill="#13171C" d="M25.044 169.619v-.657h1.41v-4.539h-1.12v-.512c.283-.051.528-.113.734-.183.212-.078.402-.168.57-.271h.608v5.505h1.275v.657h-3.477zm6.442.116c-.617 0-1.104-.277-1.458-.831-.347-.56-.521-1.355-.521-2.385 0-1.037.174-1.826.521-2.366.354-.541.84-.812 1.459-.812.611 0 1.09.271 1.439.812.354.54.53 1.329.53 2.366 0 1.03-.176 1.825-.53 2.385-.348.554-.828.831-1.44.831zm0-.638c.361 0 .65-.203.87-.608.219-.412.328-1.069.328-1.97 0-.902-.11-1.549-.328-1.942-.22-.399-.509-.598-.87-.598-.36 0-.653.199-.878.598-.22.393-.329 1.04-.329 1.942 0 .901.11 1.558.329 1.97.225.405.518.608.878.608zm4.801.638c-.618 0-1.104-.277-1.458-.831-.348-.56-.522-1.355-.522-2.385 0-1.037.174-1.826.522-2.366.354-.541.84-.812 1.458-.812.612 0 1.091.271 1.44.812.353.54.53 1.329.53 2.366 0 1.03-.177 1.825-.53 2.385-.349.554-.828.831-1.44.831zm0-.638c.36 0 .65-.203.87-.608.218-.412.328-1.069.328-1.97 0-.902-.11-1.549-.329-1.942-.219-.399-.508-.598-.869-.598-.36 0-.653.199-.879.598-.219.393-.328 1.04-.328 1.942 0 .901.11 1.558.328 1.97.226.405.518.608.88.608zm155.521 1.152c-.485 0-.923-.098-1.314-.293-.384-.196-.689-.518-.913-.967-.225-.449-.337-1.054-.337-1.815v-4.183h.902v4.205c0 .572.072 1.025.217 1.358.152.326.351.558.598.696.253.137.536.206.847.206.319 0 .605-.069.859-.206.253-.138.452-.37.597-.696.152-.333.228-.786.228-1.358v-4.205h.869v4.183c0 .761-.112 1.366-.336 1.815-.225.449-.529.771-.913.967a2.84 2.84 0 01-1.304.293zm6.343 0c-.5 0-.964-.094-1.391-.282a3.666 3.666 0 01-1.108-.772l.543-.63c.254.268.551.485.891.652.348.159.706.239 1.076.239.47 0 .836-.105 1.097-.315.261-.217.391-.5.391-.848 0-.246-.054-.441-.163-.586a1.256 1.256 0 00-.424-.37 6.71 6.71 0 00-.597-.304l-1.021-.445a3.846 3.846 0 01-.674-.37 2.045 2.045 0 01-.554-.586c-.145-.239-.218-.533-.218-.88 0-.363.095-.685.283-.967.196-.29.464-.515.804-.674.34-.167.724-.25 1.152-.25.427 0 .822.083 1.184.25.362.159.67.369.923.63l-.488.587a2.44 2.44 0 00-.728-.489 2.066 2.066 0 00-.891-.185c-.399 0-.721.094-.967.283a.916.916 0 00-.359.76c0 .225.058.413.174.565.123.145.275.265.456.359.181.094.366.181.554.26l1.011.435c.275.116.521.257.739.424.224.159.402.358.532.597.13.232.196.526.196.88 0 .377-.098.721-.294 1.033a2.067 2.067 0 01-.836.728c-.363.181-.793.271-1.293.271zm3.826-.13v-7.128h1.782c1.101 0 1.938.308 2.51.924.572.608.858 1.478.858 2.607 0 1.138-.286 2.021-.858 2.652-.565.63-1.387.945-2.467.945h-1.825zm.902-.739h.815c.833 0 1.456-.25 1.869-.75.42-.507.63-1.209.63-2.108 0-.898-.21-1.586-.63-2.064-.413-.485-1.036-.728-1.869-.728h-.815v5.65z"/><rect width="9.054" height="9.054" x="14.926" y="190.078" fill="#fff" rx=".905"/><rect width="9.054" height="9.054" x="14.926" y="190.078" stroke="#64ACFF" stroke-width=".604" rx=".905"/><path fill="#EEE" d="M18.667 191.587h1.571v1.61l1.441-.804.792 1.325-1.435.8 1.435.8-.792 1.324-1.44-.803v1.609h-1.572v-1.609l-1.44.804-.792-1.324 1.434-.801-1.434-.8.791-1.325 1.441.804v-1.61z"/><path fill="#13171C" d="M31.187 197.605v-6.335h3.65v.676h-2.849v2.144h2.415v.676h-2.415v2.839h-.801zm4.695 0v-4.693h.791v4.693h-.791zm.405-5.659a.566.566 0 01-.386-.135.524.524 0 01-.145-.387c0-.154.048-.28.145-.376a.541.541 0 01.386-.145c.155 0 .28.048.377.145a.491.491 0 01.154.376c0 .161-.051.29-.154.387a.53.53 0 01-.377.135zm1.315 5.659l1.535-2.453-1.42-2.24h.86l.628 1.033.222.386c.077.135.158.267.241.396h.039c.07-.129.142-.261.212-.396.071-.135.142-.264.213-.386l.57-1.033h.83l-1.42 2.327 1.526 2.366h-.86l-.685-1.091-.25-.425a8.68 8.68 0 00-.262-.415h-.038a8.41 8.41 0 00-.242.415 14.6 14.6 0 00-.232.425l-.637 1.091h-.83zm6.709.116c-.419 0-.799-.096-1.14-.29a2.144 2.144 0 01-.811-.849c-.2-.367-.3-.805-.3-1.314 0-.515.1-.956.3-1.323a2.3 2.3 0 01.792-.85 1.9 1.9 0 011.014-.299c.599 0 1.059.199 1.38.598.33.4.493.934.493 1.604 0 .083-.003.167-.01.251a.945.945 0 01-.019.203h-3.167c.032.495.186.891.463 1.187.284.297.65.445 1.101.445.226 0 .432-.032.618-.097.193-.071.377-.161.55-.27l.28.521a3.497 3.497 0 01-.685.338 2.373 2.373 0 01-.86.145zm-1.478-2.839h2.511c0-.477-.103-.837-.31-1.082-.199-.251-.482-.377-.849-.377-.328 0-.625.129-.889.387-.257.251-.411.608-.463 1.072zm5.97 2.839c-.587 0-1.057-.212-1.41-.637-.355-.432-.532-1.037-.532-1.816 0-.509.094-.946.28-1.313.193-.374.444-.66.754-.86a1.85 1.85 0 011.004-.299c.27 0 .505.048.705.145.2.096.402.228.608.396l-.038-.802v-1.806h.801v6.876h-.656l-.068-.55h-.029c-.18.18-.393.338-.637.473a1.653 1.653 0 01-.783.193zm.173-.666c.412 0 .811-.216 1.198-.647v-2.453a1.875 1.875 0 00-.58-.377 1.412 1.412 0 00-.56-.116c-.251 0-.48.077-.686.232-.2.148-.36.357-.483.628a2.21 2.21 0 00-.183.936c0 .561.113 1.002.338 1.324.225.315.544.473.956.473zm5.514.55v-4.693h.656l.068.849h.029a2.13 2.13 0 01.589-.705 1.254 1.254 0 011.246-.164l-.155.696a1.245 1.245 0 00-.454-.078c-.2 0-.409.081-.627.242-.213.161-.4.441-.56.84v3.013h-.792zm4.194.116c-.393 0-.722-.116-.985-.348-.258-.238-.387-.566-.387-.985 0-.515.229-.907.686-1.178.463-.277 1.194-.47 2.192-.579 0-.2-.029-.39-.087-.57a.821.821 0 00-.29-.435c-.135-.116-.331-.174-.589-.174-.27 0-.524.052-.763.155a3.72 3.72 0 00-.637.348l-.309-.551c.219-.142.486-.277.801-.405.322-.136.67-.203 1.044-.203.573 0 .988.177 1.245.531.258.348.387.814.387 1.4v2.878h-.657l-.068-.56h-.029c-.218.18-.46.338-.724.473a1.751 1.751 0 01-.83.203zm.231-.637c.226 0 .438-.055.638-.164.2-.11.412-.264.637-.464v-1.304c-.779.097-1.326.242-1.642.435-.309.193-.463.441-.463.743 0 .264.08.458.241.58a.98.98 0 00.59.174zm4.899.637c-.502 0-.853-.145-1.053-.434-.193-.29-.29-.667-.29-1.13v-2.598h-.695v-.599l.734-.048.097-1.314h.666v1.314h1.265v.647h-1.265v2.607c0 .29.052.515.155.676.11.155.3.232.57.232.083 0 .173-.013.27-.039l.26-.086.155.598c-.129.045-.27.084-.425.116a1.738 1.738 0 01-.444.058zm3.556 0a2.27 2.27 0 01-1.14-.29 2.144 2.144 0 01-.81-.849c-.2-.367-.3-.805-.3-1.314 0-.515.1-.956.3-1.323a2.3 2.3 0 01.791-.85 1.9 1.9 0 011.014-.299c.6 0 1.06.199 1.381.598.329.4.493.934.493 1.604 0 .083-.003.167-.01.251a.945.945 0 01-.02.203h-3.167c.032.495.187.891.464 1.187.283.297.65.445 1.1.445.226 0 .432-.032.619-.097.193-.071.377-.161.55-.27l.28.521c-.2.129-.428.242-.685.338a2.373 2.373 0 01-.86.145zm-1.478-2.839h2.511c0-.477-.103-.837-.309-1.082-.2-.251-.482-.377-.85-.377-.328 0-.624.129-.888.387-.257.251-.412.608-.463 1.072z"/><path fill="#fff" d="M79.977 190.38a4.231 4.231 0 00-4.225 4.225 4.231 4.231 0 004.225 4.225 4.231 4.231 0 004.225-4.225 4.231 4.231 0 00-4.225-4.225zm0 7.042a.465.465 0 01-.47-.47v-2.816c0-.263.207-.47.47-.47s.47.207.47.47v2.816c0 .263-.207.47-.47.47zm0-4.319a.565.565 0 01-.563-.564c0-.309.253-.563.563-.563.31 0 .563.254.563.563 0 .31-.253.564-.563.564z"/><path fill="#64ACFF" d="M79.977 193.103a.565.565 0 01-.563-.564c0-.309.253-.563.563-.563.31 0 .563.254.563.563 0 .31-.253.564-.563.564zm0 4.319a.465.465 0 01-.47-.47v-2.816c0-.263.207-.47.47-.47s.47.207.47.47v2.816c0 .263-.207.47-.47.47z"/><path stroke="#64ACFF" stroke-width=".604" d="M79.977 190.078a4.533 4.533 0 00-4.527 4.527 4.533 4.533 0 004.527 4.527 4.533 4.533 0 004.527-4.527 4.533 4.533 0 00-4.527-4.527z"/><rect width="9.054" height="9.054" x="122.078" y="190.078" fill="#fff" rx=".905"/><rect width="9.054" height="9.054" x="122.078" y="190.078" stroke="#64ACFF" stroke-width=".604" rx=".905"/><path fill="#EEE" d="M125.819 191.587h1.571v1.61l1.441-.804.792 1.325-1.435.8 1.435.8-.792 1.324-1.441-.803v1.609h-1.571v-1.609l-1.441.804-.791-1.324 1.435-.801-1.435-.8.791-1.325 1.441.804v-1.61z"/><path fill="#13171C" d="M138.339 197.605v-6.335h3.651v.676h-2.849v2.144h2.414v.676h-2.414v2.839h-.802zm6.465.116c-.418 0-.798-.096-1.139-.29a2.141 2.141 0 01-.811-.849c-.2-.367-.3-.805-.3-1.314 0-.515.1-.956.3-1.323a2.3 2.3 0 01.792-.85 1.895 1.895 0 011.014-.299c.598 0 1.059.199 1.381.598.328.4.492.934.492 1.604 0 .083-.003.167-.01.251a.94.94 0 01-.019.203h-3.168c.033.495.187.891.464 1.187.283.297.65.445 1.101.445.225 0 .431-.032.618-.097.193-.071.377-.161.551-.27l.28.521c-.2.129-.429.242-.686.338a2.375 2.375 0 01-.86.145zm-1.477-2.839h2.511c0-.477-.103-.837-.309-1.082-.2-.251-.483-.377-.85-.377-.328 0-.625.129-.889.387-.257.251-.412.608-.463 1.072zm6.269 2.839c-.419 0-.799-.096-1.14-.29a2.141 2.141 0 01-.811-.849c-.2-.367-.3-.805-.3-1.314 0-.515.1-.956.3-1.323a2.3 2.3 0 01.792-.85 1.9 1.9 0 011.014-.299c.598 0 1.059.199 1.381.598.328.4.492.934.492 1.604 0 .083-.003.167-.009.251a.936.936 0 01-.02.203h-3.167c.032.495.186.891.463 1.187.283.297.65.445 1.101.445.225 0 .431-.032.618-.097.193-.071.377-.161.551-.27l.28.521c-.2.129-.428.242-.686.338a2.373 2.373 0 01-.859.145zm-1.478-2.839h2.511c0-.477-.103-.837-.309-1.082-.2-.251-.483-.377-.85-.377-.328 0-.625.129-.889.387-.257.251-.412.608-.463 1.072zm6.299 4.703v-6.673h.657l.068.54h.029a3.64 3.64 0 01.695-.463 1.77 1.77 0 01.802-.193c.605 0 1.065.219 1.381.656.315.432.473 1.011.473 1.739 0 .528-.097.982-.29 1.362a2.113 2.113 0 01-.743.869 1.777 1.777 0 01-.995.299 1.61 1.61 0 01-.657-.145 3.326 3.326 0 01-.647-.396l.019.821v1.584h-.792zm1.942-2.53c.386 0 .705-.164.956-.493.257-.335.386-.792.386-1.371 0-.515-.096-.931-.29-1.246-.186-.322-.502-.483-.946-.483a1.3 1.3 0 00-.609.164c-.199.11-.415.267-.647.473v2.463c.213.18.419.309.619.387.199.07.376.106.531.106zm4.365.666c-.393 0-.721-.116-.985-.348-.258-.238-.386-.566-.386-.985 0-.515.228-.907.685-1.178.464-.277 1.195-.47 2.193-.579 0-.2-.029-.39-.087-.57a.822.822 0 00-.29-.435c-.135-.116-.332-.174-.589-.174-.27 0-.525.052-.763.155a3.683 3.683 0 00-.637.348l-.309-.551c.218-.142.486-.277.801-.405.322-.136.67-.203 1.043-.203.573 0 .988.177 1.246.531.258.348.386.814.386 1.4v2.878h-.656l-.068-.56h-.029c-.219.18-.46.338-.724.473a1.755 1.755 0 01-.831.203zm.232-.637c.225 0 .438-.055.637-.164.2-.11.412-.264.638-.464v-1.304c-.779.097-1.327.242-1.642.435-.309.193-.464.441-.464.743 0 .264.081.458.242.58a.98.98 0 00.589.174zm3.553.521v-4.693h.792v4.693h-.792zm.406-5.659a.567.567 0 01-.387-.135.527.527 0 01-.145-.387.51.51 0 01.145-.376.542.542 0 01.387-.145c.154 0 .28.048.376.145a.492.492 0 01.155.376c0 .161-.052.29-.155.387a.529.529 0 01-.376.135zm3.574 5.775c-.586 0-1.056-.212-1.41-.637-.354-.432-.531-1.037-.531-1.816 0-.509.093-.946.28-1.313.193-.374.444-.66.753-.86.316-.199.65-.299 1.004-.299.271 0 .506.048.705.145.2.096.403.228.609.396l-.039-.802v-1.806h.802v6.876h-.657l-.067-.55h-.029c-.181.18-.393.338-.638.473a1.652 1.652 0 01-.782.193zm.174-.666c.412 0 .811-.216 1.197-.647v-2.453a1.864 1.864 0 00-.579-.377 1.412 1.412 0 00-.56-.116c-.251 0-.48.077-.686.232-.2.148-.361.357-.483.628a2.214 2.214 0 00-.183.936c0 .561.112 1.002.338 1.324.225.315.544.473.956.473zm7.59.666c-.219 0-.448-.051-.686-.154a2.693 2.693 0 01-.657-.445h-.029l-.067.483h-.638v-6.876h.792v1.874l-.019.849c.212-.186.444-.341.695-.463.258-.129.515-.193.773-.193.611 0 1.075.215 1.39.647.316.431.474 1.011.474 1.738 0 .535-.097.992-.29 1.372a2.123 2.123 0 01-.744.869 1.772 1.772 0 01-.994.299zm-.136-.666c.387 0 .705-.164.956-.493.258-.335.387-.792.387-1.371 0-.515-.097-.931-.29-1.246-.187-.322-.502-.483-.946-.483-.2 0-.403.055-.609.164-.206.11-.422.267-.647.473v2.463c.206.18.409.309.608.387.206.07.387.106.541.106zm3.437 2.569c-.103 0-.203-.01-.3-.029a2.524 2.524 0 01-.251-.068l.155-.628c.051.013.109.026.174.039a.644.644 0 00.183.029.847.847 0 00.657-.29c.174-.186.309-.425.405-.714l.107-.348-1.884-4.703h.821l.956 2.598c.071.199.145.415.223.647.083.231.161.457.231.676h.039c.071-.213.138-.435.203-.667.064-.232.129-.45.193-.656l.84-2.598h.773l-1.768 5.08a4.09 4.09 0 01-.396.83 1.72 1.72 0 01-.56.58c-.219.148-.486.222-.801.222zm7.735-1.903c-.495 0-.859-.154-1.091-.463-.232-.316-.348-.773-.348-1.372v-2.974h.802v2.868c0 .438.068.756.203.956.142.2.367.299.676.299.245 0 .46-.061.647-.183.193-.129.399-.332.618-.609v-3.331h.792v4.693h-.657l-.067-.734h-.029a3.052 3.052 0 01-.696.618 1.552 1.552 0 01-.85.232zm5.109 0a2.53 2.53 0 01-.956-.183 3.378 3.378 0 01-.792-.464l.396-.531c.206.161.418.296.637.406.219.103.467.154.744.154.309 0 .541-.071.695-.212a.7.7 0 00.232-.522.554.554 0 00-.164-.406 1.181 1.181 0 00-.406-.27 5.814 5.814 0 00-.502-.212 8.208 8.208 0 01-.647-.281 1.592 1.592 0 01-.522-.415c-.135-.174-.202-.393-.202-.657 0-.379.141-.695.425-.946.289-.258.688-.386 1.197-.386.29 0 .56.051.811.154.251.103.467.229.647.377l-.386.502a2.52 2.52 0 00-.502-.299 1.377 1.377 0 00-.57-.116c-.296 0-.515.067-.657.203a.648.648 0 00-.202.473.5.5 0 00.144.367c.097.09.223.17.377.241.155.065.319.132.493.203.225.084.447.18.666.29.219.103.399.244.541.425.148.174.222.409.222.705 0 .251-.068.483-.203.695a1.374 1.374 0 01-.579.512c-.251.129-.564.193-.937.193zm4.722 0c-.419 0-.798-.096-1.14-.29a2.148 2.148 0 01-.811-.849c-.2-.367-.299-.805-.299-1.314 0-.515.099-.956.299-1.323a2.3 2.3 0 01.792-.85 1.9 1.9 0 011.014-.299c.599 0 1.059.199 1.381.598.328.4.493.934.493 1.604 0 .083-.004.167-.01.251a.94.94 0 01-.019.203h-3.168c.032.495.187.891.464 1.187.283.297.65.445 1.101.445.225 0 .431-.032.618-.097.193-.071.376-.161.55-.27l.28.521a3.507 3.507 0 01-.686.338 2.37 2.37 0 01-.859.145zm-1.478-2.839h2.511c0-.477-.103-.837-.309-1.082-.199-.251-.483-.377-.85-.377-.328 0-.624.129-.888.387-.258.251-.412.608-.464 1.072zm4.366 2.723v-4.693h.657l.068.849h.029c.161-.296.357-.531.589-.705a1.255 1.255 0 011.246-.164l-.155.696a1.252 1.252 0 00-.454-.078c-.199 0-.409.081-.627.242-.213.161-.4.441-.561.84v3.013h-.792z"/><path fill="#fff" d="M213.128 190.38a4.232 4.232 0 00-4.226 4.225 4.232 4.232 0 004.226 4.225 4.231 4.231 0 004.225-4.225 4.231 4.231 0 00-4.225-4.225zm0 7.042a.466.466 0 01-.47-.47v-2.816c0-.263.207-.47.47-.47s.469.207.469.47v2.816c0 .263-.206.47-.469.47zm0-4.319a.566.566 0 01-.564-.564c0-.309.254-.563.564-.563.309 0 .563.254.563.563 0 .31-.254.564-.563.564z"/><path fill="#64ACFF" d="M213.128 193.103a.566.566 0 01-.564-.564c0-.309.254-.563.564-.563.309 0 .563.254.563.563 0 .31-.254.564-.563.564zm0 4.319a.466.466 0 01-.47-.47v-2.816c0-.263.207-.47.47-.47s.469.207.469.47v2.816c0 .263-.206.47-.469.47z"/><path stroke="#64ACFF" stroke-width=".604" d="M213.128 190.078a4.533 4.533 0 00-4.527 4.527 4.533 4.533 0 004.527 4.527 4.534 4.534 0 004.527-4.527 4.534 4.534 0 00-4.527-4.527z"/><path stroke="#EEE" stroke-linecap="round" stroke-width=".604" d="M221.66 207.849H14.624"/><path fill="#13171C" d="M18.231 226.222a2.828 2.828 0 01-1.586-.456c-.456-.304-.815-.735-1.076-1.293-.253-.558-.38-1.217-.38-1.977 0-.761.127-1.413.38-1.956.261-.551.62-.971 1.076-1.26a2.877 2.877 0 011.586-.446c.601 0 1.13.149 1.586.446.457.289.815.709 1.076 1.26.26.543.391 1.195.391 1.956 0 .76-.13 1.419-.39 1.977-.262.558-.62.989-1.077 1.293-.456.304-.985.456-1.586.456zm0-.793c.427 0 .797-.119 1.108-.359.32-.246.565-.586.74-1.021.173-.442.26-.96.26-1.553 0-.884-.192-1.583-.576-2.097-.384-.515-.894-.772-1.532-.772-.637 0-1.148.257-1.532.772-.384.514-.576 1.213-.576 2.097 0 .593.087 1.111.261 1.553.174.435.42.775.739 1.021.319.24.688.359 1.108.359zm4.499.663v-5.281h.739l.076.957h.032c.181-.334.402-.598.663-.794.26-.195.54-.293.837-.293.21 0 .398.036.565.109l-.174.782a1.375 1.375 0 00-.51-.087c-.225 0-.46.091-.707.272-.239.181-.45.496-.63.945v3.39h-.891zm5.464.13c-.66 0-1.188-.239-1.586-.717-.399-.485-.598-1.166-.598-2.043 0-.572.105-1.064.315-1.477.218-.42.5-.743.848-.967a2.075 2.075 0 011.13-.337 1.8 1.8 0 01.793.163c.224.109.453.257.684.446l-.043-.902v-2.032h.902v7.736h-.74l-.075-.62h-.033a3.177 3.177 0 01-.717.533 1.86 1.86 0 01-.88.217zm.196-.75c.463 0 .912-.242 1.347-.727v-2.76a2.122 2.122 0 00-.652-.424 1.582 1.582 0 00-.63-.13c-.283 0-.54.087-.772.261a1.753 1.753 0 00-.543.706c-.137.297-.206.648-.206 1.054 0 .63.126 1.126.38 1.488.253.355.612.532 1.076.532zm6.167.75a2.55 2.55 0 01-1.282-.326 2.415 2.415 0 01-.912-.956c-.225-.413-.337-.905-.337-1.478 0-.579.112-1.075.337-1.488a2.58 2.58 0 01.89-.956 2.129 2.129 0 011.142-.337c.673 0 1.191.225 1.553.674.37.449.554 1.05.554 1.803 0 .094-.003.189-.01.283 0 .087-.008.163-.022.228h-3.564c.036.558.21 1.003.522 1.336.318.333.731.5 1.238.5.254 0 .485-.036.695-.109a3.24 3.24 0 00.62-.304l.315.587a3.982 3.982 0 01-.772.38 2.672 2.672 0 01-.967.163zm-1.662-3.194h2.825c0-.536-.116-.942-.348-1.217-.224-.282-.543-.424-.956-.424-.37 0-.702.145-1 .435-.29.282-.463.684-.52 1.206zm4.912 3.064v-5.281h.739l.076.957h.032c.182-.334.402-.598.663-.794.261-.195.54-.293.837-.293.21 0 .398.036.565.109l-.174.782a1.376 1.376 0 00-.51-.087c-.225 0-.46.091-.707.272-.239.181-.449.496-.63.945v3.39h-.891zm6.029 0v-7.128h.901v7.128h-.901zm2.854 0v-7.128h1.782c1.1 0 1.937.308 2.51.924.572.608.858 1.478.858 2.608 0 1.137-.286 2.02-.859 2.651-.565.63-1.387.945-2.466.945H46.69zm.902-.739h.815c.833 0 1.455-.25 1.868-.75.42-.507.63-1.209.63-2.107 0-.899-.21-1.587-.63-2.065-.413-.485-1.035-.728-1.868-.728h-.815v5.65z"/><rect width="202.729" height="25.883" x="14.926" y="234.222" stroke="#D2D2D2" stroke-width=".604" rx="5.131"/><path fill="#A4A4A4" d="M27.489 250.28c-.528 0-.998-.135-1.41-.406-.406-.27-.725-.653-.957-1.149-.225-.496-.338-1.082-.338-1.758 0-.676.113-1.255.338-1.738.232-.489.55-.863.957-1.12a2.557 2.557 0 011.41-.396c.534 0 1.004.132 1.41.396.405.257.724.631.956 1.12.232.483.347 1.062.347 1.738 0 .676-.116 1.262-.347 1.758-.232.496-.55.879-.956 1.149-.406.271-.876.406-1.41.406zm0-.705c.38 0 .708-.106.985-.319.283-.219.502-.521.656-.908.155-.392.232-.853.232-1.381 0-.785-.17-1.407-.512-1.864a1.615 1.615 0 00-1.361-.685c-.567 0-1.02.228-1.362.685-.341.457-.512 1.079-.512 1.864 0 .528.077.989.232 1.381.154.387.373.689.656.908.284.213.612.319.986.319zm3.998 2.569v-6.674h.657l.068.541h.029a3.61 3.61 0 01.695-.463c.258-.129.525-.194.802-.194.605 0 1.065.219 1.38.657.316.432.474 1.011.474 1.739 0 .527-.097.981-.29 1.361-.187.38-.434.67-.743.869-.303.2-.635.3-.995.3-.22 0-.438-.048-.657-.145a3.41 3.41 0 01-.647-.396l.02.821v1.584h-.793zm1.942-2.531c.386 0 .705-.164.956-.492.257-.335.386-.792.386-1.371 0-.516-.096-.931-.29-1.246-.186-.322-.502-.483-.946-.483a1.3 1.3 0 00-.609.164c-.2.109-.415.267-.647.473v2.463c.213.18.419.309.618.386.2.071.377.106.532.106zm4.733.667c-.502 0-.853-.145-1.053-.435-.193-.289-.29-.666-.29-1.13v-2.598h-.695v-.598l.734-.049.097-1.313h.666v1.313h1.265v.647h-1.265v2.608c0 .29.051.515.154.676.11.155.3.232.57.232.084 0 .174-.013.27-.039l.261-.087.155.599c-.129.045-.27.084-.425.116a1.738 1.738 0 01-.444.058zm1.785-.116v-4.694h.792v4.694h-.792zm.406-5.659a.566.566 0 01-.386-.136.52.52 0 01-.145-.386.51.51 0 01.145-.377.545.545 0 01.386-.144.511.511 0 01.531.521c0 .161-.051.29-.154.386a.53.53 0 01-.377.136zm3.796 5.775c-.38 0-.737-.097-1.072-.29a2.193 2.193 0 01-.801-.84c-.2-.367-.3-.808-.3-1.323 0-.528.1-.976.3-1.343.206-.367.473-.647.801-.84.335-.193.693-.29 1.072-.29a2.078 2.078 0 011.864 1.13c.206.367.31.815.31 1.343 0 .515-.104.956-.31 1.323a2.078 2.078 0 01-1.864 1.13zm0-.657c.406 0 .731-.164.976-.492.25-.335.376-.77.376-1.304 0-.541-.125-.979-.376-1.314a1.152 1.152 0 00-.976-.502c-.399 0-.724.168-.975.502-.251.335-.377.773-.377 1.314 0 .534.126.969.377 1.304.251.328.576.492.975.492zm3.41.541v-4.694h.656l.068.676h.029c.225-.225.463-.412.714-.56.252-.154.538-.232.86-.232.496 0 .856.158 1.082.474.231.309.347.763.347 1.361v2.975h-.792v-2.868c0-.438-.07-.757-.212-.956-.142-.2-.367-.3-.676-.3a1.18 1.18 0 00-.647.184c-.187.122-.4.302-.638.54v3.4h-.792zm6.363.116c-.393 0-.721-.116-.985-.348-.258-.238-.387-.566-.387-.985 0-.515.229-.908.686-1.178.464-.277 1.194-.47 2.192-.58 0-.199-.029-.389-.087-.569a.814.814 0 00-.29-.435c-.135-.116-.331-.174-.589-.174-.27 0-.524.052-.763.155-.238.103-.45.219-.637.347l-.309-.55a4.86 4.86 0 01.802-.406 2.67 2.67 0 011.043-.203c.573 0 .988.177 1.245.532.258.347.387.814.387 1.4v2.878h-.657l-.068-.56h-.029c-.218.18-.46.338-.724.473a1.763 1.763 0 01-.83.203zm.231-.638a1.3 1.3 0 00.638-.164c.2-.109.412-.264.637-.463v-1.304c-.779.096-1.326.241-1.642.434-.309.194-.463.442-.463.744 0 .264.08.457.241.58a.99.99 0 00.59.173zm4.394.638c-.296 0-.512-.09-.647-.271-.13-.186-.194-.45-.194-.792v-5.929h.792v5.987c0 .123.023.213.068.271a.203.203 0 00.155.077h.067c.026-.006.061-.013.106-.019l.107.599a.715.715 0 01-.184.058c-.07.012-.16.019-.27.019z"/><path stroke="#A4A4A4" stroke-linecap="round" stroke-linejoin="round" stroke-width=".905" d="M217.824 30.002l-7.243-7.243m7.243 0l-7.243 7.243"/><rect width="9.054" height="9.054" x="14.926" y="269.123" fill="#fff" rx=".905"/><rect width="9.054" height="9.054" x="14.926" y="269.123" stroke="#64ACFF" stroke-width=".604" rx=".905"/><path fill="#64ACFF" d="M22.04 274.081h-2.156v2.156a.432.432 0 01-.736.305.433.433 0 01-.127-.305v-2.156h-2.155a.43.43 0 110-.862h2.155v-2.156a.433.433 0 01.736-.305.432.432 0 01.127.305v2.156h2.155a.434.434 0 01.432.431.43.43 0 01-.431.431zm10.373-.791l-.222.772h1.613l-.222-.772c-.103-.335-.203-.68-.3-1.034l-.27-1.052h-.039c-.084.354-.174.708-.27 1.062-.09.348-.187.689-.29 1.024zm-2.115 3.361l2.057-6.317h1.314l2.057 6.317h-1.179l-.492-1.71H31.93l-.492 1.71h-1.14zm7.77.115c-.591 0-1.065-.219-1.419-.656-.354-.438-.531-1.047-.531-1.826 0-.515.093-.959.28-1.332.193-.374.444-.66.753-.86.31-.199.634-.299.976-.299.27 0 .499.048.685.145.194.09.38.215.56.376l-.038-.763v-1.719h1.11v6.819h-.917l-.077-.512h-.039a2.522 2.522 0 01-.608.444 1.554 1.554 0 01-.734.183zm.271-.917c.354 0 .686-.177.995-.531v-2.212a1.453 1.453 0 00-.483-.309 1.417 1.417 0 00-.483-.087c-.302 0-.563.139-.782.415-.213.271-.319.654-.319 1.15 0 .508.094.898.28 1.168a.906.906 0 00.792.406zm5.181.917c-.592 0-1.066-.219-1.42-.656-.354-.438-.53-1.047-.53-1.826 0-.515.093-.959.28-1.332.192-.374.444-.66.753-.86.309-.199.634-.299.975-.299.27 0 .499.048.686.145.193.09.38.215.56.376l-.039-.763v-1.719h1.11v6.819h-.917l-.077-.512h-.039a2.522 2.522 0 01-.608.444 1.554 1.554 0 01-.734.183zm.27-.917c.355 0 .686-.177.995-.531v-2.212a1.453 1.453 0 00-.483-.309 1.417 1.417 0 00-.483-.087c-.302 0-.563.139-.782.415-.212.271-.319.654-.319 1.15 0 .508.094.898.28 1.168a.907.907 0 00.793.406zm7.115.917c-.593 0-1.066-.219-1.42-.656-.354-.438-.531-1.047-.531-1.826 0-.515.093-.959.28-1.332.193-.374.444-.66.753-.86.31-.199.634-.299.976-.299.27 0 .499.048.685.145.194.09.38.215.56.376l-.038-.763v-1.719h1.11v6.819h-.917l-.077-.512h-.039a2.522 2.522 0 01-.608.444 1.554 1.554 0 01-.734.183zm.27-.917c.354 0 .686-.177.995-.531v-2.212a1.455 1.455 0 00-.483-.309 1.416 1.416 0 00-.483-.087c-.302 0-.563.139-.782.415-.212.271-.319.654-.319 1.15 0 .508.094.898.28 1.168a.906.906 0 00.792.406zm5.548.917a2.44 2.44 0 01-1.188-.289 2.18 2.18 0 01-.84-.85c-.206-.374-.309-.821-.309-1.343 0-.515.103-.959.309-1.332.212-.374.486-.66.82-.86a2.03 2.03 0 011.054-.299c.431 0 .791.096 1.081.289.29.187.509.451.657.792.148.335.222.725.222 1.169 0 .232-.016.412-.048.541h-3.013c.051.418.202.743.453.975.252.232.567.348.947.348.206 0 .396-.029.57-.087a2.63 2.63 0 00.53-.261l.378.696a3.45 3.45 0 01-.754.367 2.634 2.634 0 01-.869.144zm-1.265-2.936h2.105c0-.367-.08-.653-.241-.859-.161-.213-.403-.319-.724-.319-.277 0-.525.103-.744.309-.213.2-.344.49-.396.869zm5.455 2.936a2.71 2.71 0 01-.966-.183 3.248 3.248 0 01-.83-.473l.521-.715c.213.161.425.29.638.386.212.097.437.145.676.145.257 0 .447-.055.57-.164a.523.523 0 00.183-.406.403.403 0 00-.155-.328 1.268 1.268 0 00-.376-.232 8.686 8.686 0 00-.483-.203 5.117 5.117 0 01-.618-.28c-.2-.116-.364-.26-.493-.434a1.12 1.12 0 01-.193-.667c0-.418.155-.759.464-1.023.309-.264.727-.396 1.255-.396.335 0 .634.058.898.174.264.115.493.247.686.396l-.512.676a2.39 2.39 0 00-.512-.29 1.256 1.256 0 00-.53-.116c-.24 0-.416.051-.532.154a.458.458 0 00-.174.367c0 .187.097.329.29.425.193.097.418.19.676.28.219.078.431.174.637.29.206.11.377.254.512.435.142.18.213.418.213.714 0 .406-.158.754-.474 1.043-.315.284-.772.425-1.371.425zm4.816 0a2.37 2.37 0 01-1.169-.289 2.222 2.222 0 01-.82-.85c-.2-.374-.3-.821-.3-1.343 0-.528.11-.975.328-1.342.22-.373.509-.657.87-.85.367-.199.76-.299 1.178-.299.302 0 .566.051.792.154.225.103.425.229.599.377l-.541.724a1.492 1.492 0 00-.377-.251.92.92 0 00-.415-.096c-.38 0-.692.144-.937.434-.238.29-.357.673-.357 1.149 0 .47.115.85.347 1.14.238.29.544.435.918.435.186 0 .36-.039.521-.116.168-.084.319-.181.454-.29l.454.734a2.25 2.25 0 01-.734.435 2.41 2.41 0 01-.811.144zm2.481-.115v-4.742h.918l.077.84h.038c.168-.309.37-.544.609-.705.238-.168.483-.251.734-.251.225 0 .406.032.54.096l-.193.966a1.481 1.481 0 00-.492-.077c-.187 0-.383.074-.59.222-.205.142-.382.393-.53.753v2.898h-1.11zm3.603 0v-4.742h1.11v4.742h-1.11zm.56-5.573c-.2 0-.36-.058-.483-.174a.608.608 0 01-.183-.463c0-.187.06-.338.183-.454a.673.673 0 01.483-.174c.2 0 .36.058.483.174a.597.597 0 01.183.454.608.608 0 01-.183.463.673.673 0 01-.483.174zm1.967 7.446v-6.615h.918l.077.502h.039c.2-.168.422-.312.666-.435a1.73 1.73 0 01.763-.183c.593 0 1.05.219 1.371.656.329.438.493 1.024.493 1.758 0 .541-.097 1.005-.29 1.391a2.18 2.18 0 01-.753.869c-.303.2-.63.299-.985.299-.206 0-.412-.045-.618-.135a2.753 2.753 0 01-.599-.386l.03.792v1.487H74.34zm2.067-2.675c.316 0 .58-.139.792-.415.213-.277.319-.683.319-1.217 0-.477-.08-.847-.242-1.111-.16-.264-.421-.396-.782-.396-.335 0-.682.177-1.043.531v2.212c.174.142.341.245.502.309.161.058.313.087.454.087zm4.839.917c-.548 0-.937-.157-1.169-.473-.225-.322-.338-.737-.338-1.246v-2.26h-.676v-.83l.734-.048.135-1.295h.927v1.295h1.208v.878h-1.208v2.26c0 .554.222.831.667.831.083 0 .17-.01.26-.029.09-.026.168-.052.232-.077l.193.821a3.144 3.144 0 01-.444.115 2.212 2.212 0 01-.521.058zm1.818-.115v-4.742h1.111v4.742h-1.11zm.56-5.573a.67.67 0 01-.482-.174.607.607 0 01-.184-.463c0-.187.061-.338.184-.454a.673.673 0 01.483-.174c.2 0 .36.058.482.174a.596.596 0 01.184.454.607.607 0 01-.184.463.673.673 0 01-.483.174zm3.91 5.688a2.2 2.2 0 01-1.102-.289 2.294 2.294 0 01-.83-.85c-.213-.374-.32-.821-.32-1.343 0-.528.107-.975.32-1.342a2.2 2.2 0 01.83-.85 2.15 2.15 0 011.101-.299c.4 0 .77.1 1.11.299a2.2 2.2 0 01.831.85c.213.367.32.814.32 1.342 0 .522-.107.969-.32 1.343a2.29 2.29 0 01-.83.85 2.218 2.218 0 01-1.11.289zm0-.907a.945.945 0 00.82-.435c.2-.29.3-.67.3-1.14 0-.476-.1-.859-.3-1.149a.944.944 0 00-.82-.434.944.944 0 00-.822.434c-.193.29-.29.673-.29 1.149 0 .47.097.85.29 1.14.2.29.474.435.821.435zm3.358.792v-4.742h.918l.077.637h.039a3.68 3.68 0 01.695-.531 1.66 1.66 0 01.86-.222c.508 0 .879.164 1.11.492.232.329.348.792.348 1.391v2.975h-1.11v-2.83c0-.393-.059-.67-.174-.831-.116-.161-.306-.241-.57-.241a.999.999 0 00-.55.154 3.41 3.41 0 00-.532.435v3.313h-1.11z"/><g clip-path="url(#b)"><rect width="9.658" height="9.658" x="14.624" y="288.065" fill="#64ACFF" rx="1.207"/><path fill="#fff" d="M18.648 294.171l3.699-3.7.57.569-4.27 4.269-2.56-2.561.569-.569 1.992 1.992z"/></g><path fill="#13171C" d="M33.582 296.009a2.65 2.65 0 01-1.42-.386c-.412-.264-.74-.641-.985-1.13-.238-.489-.357-1.078-.357-1.767 0-.683.122-1.269.367-1.758a2.727 2.727 0 011.004-1.13 2.67 2.67 0 011.439-.396c.386 0 .727.081 1.024.242.296.154.534.334.714.54l-.434.522a2.08 2.08 0 00-.57-.435 1.564 1.564 0 00-.724-.164c-.4 0-.75.106-1.053.319a2.04 2.04 0 00-.695.879c-.161.38-.242.833-.242 1.361s.08.989.242 1.381c.16.387.386.686.676.899.296.212.644.318 1.043.318.302 0 .573-.064.81-.193.24-.129.458-.302.658-.521l.444.502c-.251.29-.535.515-.85.676-.316.161-.68.241-1.091.241zm4.87 0c-.38 0-.737-.096-1.072-.289a2.203 2.203 0 01-.802-.841c-.2-.367-.299-.808-.299-1.323 0-.528.1-.975.3-1.342a2.19 2.19 0 01.8-.84 2.11 2.11 0 011.073-.29c.386 0 .744.096 1.072.29.328.193.592.473.792.84.206.367.309.814.309 1.342 0 .515-.103.956-.31 1.323a2.13 2.13 0 01-.791.841 2.078 2.078 0 01-1.072.289zm0-.656c.406 0 .73-.165.975-.493.252-.335.377-.769.377-1.304 0-.541-.126-.978-.377-1.313a1.15 1.15 0 00-.975-.502c-.4 0-.724.167-.975.502-.252.335-.377.772-.377 1.313 0 .535.125.969.377 1.304.25.328.576.493.975.493zm4.25.656c-.297 0-.513-.09-.648-.27-.129-.187-.193-.451-.193-.792v-5.93h.792v5.988c0 .122.023.212.068.27a.2.2 0 00.154.078h.068a.976.976 0 01.106-.02l.106.599a.678.678 0 01-.183.058 1.548 1.548 0 01-.27.019zm2.46 0c-.295 0-.511-.09-.646-.27-.129-.187-.193-.451-.193-.792v-5.93h.791v5.988c0 .122.023.212.068.27a.2.2 0 00.155.078h.067c.026-.007.061-.013.106-.02l.107.599a.68.68 0 01-.184.058c-.07.013-.16.019-.27.019zm3.525 0c-.419 0-.799-.096-1.14-.289a2.154 2.154 0 01-.811-.85c-.2-.367-.3-.805-.3-1.314 0-.515.1-.956.3-1.323a2.3 2.3 0 01.792-.85 1.9 1.9 0 011.014-.299c.599 0 1.059.2 1.38.599.33.399.493.933.493 1.603 0 .084-.003.167-.01.251a.952.952 0 01-.019.203H47.22c.032.496.187.891.463 1.188.284.296.65.444 1.101.444.226 0 .432-.032.618-.097.193-.07.377-.161.55-.27l.28.521a3.497 3.497 0 01-.685.338 2.373 2.373 0 01-.86.145zm-1.478-2.839h2.511c0-.476-.103-.837-.309-1.082-.2-.251-.483-.376-.85-.376-.328 0-.624.128-.888.386-.258.251-.412.608-.464 1.072zm6.22 2.839c-.412 0-.785-.096-1.12-.289a2.047 2.047 0 01-.792-.841c-.193-.367-.29-.808-.29-1.323 0-.528.104-.975.31-1.342a2.21 2.21 0 01.83-.84c.348-.194.721-.29 1.12-.29.31 0 .573.055.792.164.226.11.419.238.58.386l-.406.522a1.943 1.943 0 00-.434-.299 1.06 1.06 0 00-.502-.116 1.32 1.32 0 00-.764.231 1.527 1.527 0 00-.521.638 2.28 2.28 0 00-.184.946c0 .535.133.969.396 1.304.27.328.622.493 1.053.493.219 0 .422-.045.609-.136.186-.096.35-.209.492-.338l.348.532a2.637 2.637 0 01-.705.444 2.165 2.165 0 01-.812.154zm3.934 0c-.502 0-.853-.145-1.053-.434-.193-.29-.29-.667-.29-1.13v-2.598h-.695v-.599l.734-.048.097-1.314h.666v1.314h1.265v.647h-1.265v2.607c0 .29.052.516.155.676.11.155.3.232.57.232.083 0 .173-.013.27-.038l.26-.087.155.598a3.19 3.19 0 01-.425.116 1.738 1.738 0 01-.444.058zm5.573 0c-.412 0-.785-.096-1.12-.289a2.047 2.047 0 01-.792-.841c-.193-.367-.29-.808-.29-1.323 0-.528.103-.975.31-1.342a2.21 2.21 0 01.83-.84c.348-.194.721-.29 1.12-.29.31 0 .573.055.792.164.225.11.419.238.58.386l-.406.522a1.94 1.94 0 00-.435-.299 1.06 1.06 0 00-.502-.116 1.32 1.32 0 00-.763.231 1.527 1.527 0 00-.521.638c-.123.27-.184.586-.184.946 0 .535.132.969.396 1.304a1.3 1.3 0 001.053.493c.219 0 .422-.045.608-.136a2.27 2.27 0 00.493-.338l.348.532a2.636 2.636 0 01-.706.444 2.164 2.164 0 01-.81.154zm3.922 0c-.496 0-.86-.154-1.092-.463-.231-.316-.347-.773-.347-1.372V291.2h.801v2.868c0 .438.068.757.203.956.142.2.367.3.676.3.245 0 .46-.062.647-.184.194-.129.4-.331.618-.608V291.2h.792v4.693H68.5l-.068-.734h-.029c-.219.258-.45.464-.695.619a1.561 1.561 0 01-.85.231zm5.108 0c-.335 0-.653-.061-.956-.183a3.357 3.357 0 01-.792-.464l.396-.531c.206.161.419.296.638.406.219.103.466.154.743.154.31 0 .541-.071.695-.212a.7.7 0 00.232-.522.549.549 0 00-.164-.405c-.103-.11-.238-.2-.405-.271a5.818 5.818 0 00-.503-.212 8.28 8.28 0 01-.647-.28 1.602 1.602 0 01-.521-.416c-.136-.173-.203-.392-.203-.656 0-.38.142-.696.425-.947.29-.257.689-.386 1.197-.386.29 0 .56.051.812.154.25.103.466.229.647.377l-.387.502a2.52 2.52 0 00-.502-.299 1.391 1.391 0 00-.57-.116c-.296 0-.515.068-.656.203a.648.648 0 00-.203.473c0 .148.048.27.145.367.096.09.222.171.376.241.155.065.32.132.493.203.225.084.447.181.666.29.22.103.4.245.541.425.148.174.222.409.222.705 0 .251-.067.483-.203.695a1.37 1.37 0 01-.579.512c-.251.129-.563.193-.937.193zm4.109 0c-.502 0-.853-.145-1.053-.434-.193-.29-.29-.667-.29-1.13v-2.598h-.695v-.599l.734-.048.097-1.314h.666v1.314h1.265v.647h-1.265v2.607c0 .29.051.516.154.676.11.155.3.232.57.232.084 0 .174-.013.27-.038l.261-.087.155.598c-.129.046-.27.084-.425.116a1.738 1.738 0 01-.444.058zm3.479 0a2.11 2.11 0 01-1.072-.289 2.201 2.201 0 01-.802-.841c-.2-.367-.3-.808-.3-1.323 0-.528.1-.975.3-1.342.206-.367.473-.647.802-.84a2.1 2.1 0 011.072-.29c.386 0 .743.096 1.072.29.328.193.592.473.791.84.207.367.31.814.31 1.342 0 .515-.103.956-.31 1.323-.2.367-.463.647-.791.841a2.078 2.078 0 01-1.072.289zm0-.656c.405 0 .73-.165.975-.493.251-.335.377-.769.377-1.304 0-.541-.126-.978-.377-1.313a1.15 1.15 0 00-.975-.502c-.4 0-.725.167-.976.502-.25.335-.377.772-.377 1.313 0 .535.126.969.377 1.304.251.328.576.493.976.493zm3.409.54V291.2h.656l.068.676h.029c.206-.226.431-.412.676-.56.245-.155.505-.232.782-.232.36 0 .64.08.84.241.207.155.358.374.454.657.245-.264.493-.48.744-.647.251-.167.518-.251.802-.251.483 0 .84.158 1.072.473.238.309.357.763.357 1.362v2.974h-.792v-2.868c0-.438-.07-.756-.212-.956-.142-.2-.361-.299-.657-.299-.348 0-.74.241-1.178.724v3.399h-.792v-2.868c0-.438-.071-.756-.213-.956-.141-.2-.364-.299-.666-.299-.348 0-.74.241-1.178.724v3.399h-.792zm9.91.116a2.27 2.27 0 01-1.14-.289 2.154 2.154 0 01-.811-.85c-.2-.367-.3-.805-.3-1.314 0-.515.1-.956.3-1.323a2.3 2.3 0 01.791-.85 1.9 1.9 0 011.015-.299c.598 0 1.059.2 1.38.599.329.399.493.933.493 1.603 0 .084-.003.167-.01.251a.945.945 0 01-.019.203h-3.168c.033.496.187.891.464 1.188.283.296.65.444 1.101.444.225 0 .431-.032.618-.097.193-.07.377-.161.55-.27l.28.521a3.497 3.497 0 01-.685.338 2.373 2.373 0 01-.86.145zm-1.478-2.839h2.51c0-.476-.102-.837-.308-1.082-.2-.251-.483-.376-.85-.376-.329 0-.625.128-.889.386-.257.251-.412.608-.463 1.072zm4.366 2.723V291.2h.657l.067.85h.03a2.14 2.14 0 01.588-.705 1.254 1.254 0 011.246-.165l-.154.696a1.253 1.253 0 00-.454-.077c-.2 0-.409.08-.628.241-.212.161-.4.441-.56.84v3.013h-.792zm5.282 0V291.2h.791v4.693h-.791zm.405-5.659a.566.566 0 01-.386-.135.522.522 0 01-.145-.386c0-.155.048-.281.145-.377a.541.541 0 01.386-.145.509.509 0 01.531.522c0 .16-.051.289-.154.386a.531.531 0 01-.377.135zm1.971 5.659V291.2h.657l.068.676h.029c.225-.226.463-.412.714-.56.251-.155.538-.232.86-.232.495 0 .856.158 1.081.473.232.309.348.763.348 1.362v2.974h-.792v-2.868c0-.438-.071-.756-.212-.956-.142-.2-.367-.299-.676-.299-.239 0-.454.061-.647.183a4.17 4.17 0 00-.638.541v3.399h-.792zm5.417 0v-4.046h-.637v-.599l.637-.048v-.744c0-.476.109-.853.328-1.13.226-.283.573-.425 1.043-.425.148 0 .29.016.425.049.135.025.255.061.358.106l-.174.608a1.301 1.301 0 00-.531-.116c-.438 0-.657.303-.657.908v.744h.995v.647h-.995v4.046h-.792zm4.416.116a2.11 2.11 0 01-1.072-.289 2.198 2.198 0 01-.802-.841c-.199-.367-.299-.808-.299-1.323 0-.528.1-.975.299-1.342.206-.367.473-.647.802-.84a2.1 2.1 0 011.072-.29c.386 0 .743.096 1.072.29.328.193.592.473.792.84.206.367.309.814.309 1.342 0 .515-.103.956-.309 1.323-.2.367-.464.647-.792.841a2.08 2.08 0 01-1.072.289zm0-.656c.405 0 .73-.165.975-.493.251-.335.377-.769.377-1.304 0-.541-.126-.978-.377-1.313a1.15 1.15 0 00-.975-.502c-.399 0-.725.167-.976.502-.251.335-.376.772-.376 1.313 0 .535.125.969.376 1.304.251.328.577.493.976.493z"/><path fill="#7E7E7E" d="M32.126 311.124a8.078 8.078 0 01-.82-1.783 6.797 6.797 0 01-.296-2.053 6.8 6.8 0 01.296-2.054c.197-.625.47-1.22.82-1.783l.43.203a6.434 6.434 0 00-.734 1.741 7.738 7.738 0 000 3.794c.163.62.408 1.197.735 1.732l-.431.203zm1.51-1.487v-5.544h.727l2.003 3.482.6 1.149h.033a57.166 57.166 0 00-.059-.87 16.153 16.153 0 01-.025-.896v-2.865h.668v5.544h-.727l-2.011-3.49-.6-1.141h-.034c.022.276.042.561.059.853.022.293.034.586.034.879v2.899h-.668zm6.35.101c-.343 0-.63-.101-.862-.304-.225-.208-.338-.496-.338-.862 0-.451.2-.794.6-1.031.406-.242 1.045-.411 1.919-.507a1.61 1.61 0 00-.076-.498.717.717 0 00-.254-.381c-.118-.101-.29-.152-.515-.152-.237 0-.46.045-.668.135a3.27 3.27 0 00-.558.305l-.27-.482c.191-.124.425-.242.701-.355a2.34 2.34 0 01.913-.177c.501 0 .865.154 1.09.464.225.305.338.713.338 1.226v2.518h-.575l-.059-.49h-.025a3.59 3.59 0 01-.634.414 1.543 1.543 0 01-.727.177zm.203-.557c.197 0 .383-.048.558-.144.175-.096.36-.231.558-.406v-1.141c-.682.085-1.16.212-1.437.381-.27.169-.406.386-.406.65 0 .231.07.4.212.507.14.102.312.153.515.153zm3.11.456v-4.107h.574l.059.591h.025c.18-.197.378-.36.592-.49a1.26 1.26 0 01.684-.202c.316 0 .56.07.736.211.18.135.312.327.397.574.214-.231.43-.419.65-.566.22-.146.454-.219.702-.219.422 0 .735.138.938.414.208.27.312.667.312 1.191v2.603h-.693v-2.51c0-.383-.061-.662-.185-.837-.124-.174-.316-.262-.575-.262-.304 0-.648.212-1.031.634v2.975h-.693v-2.51c0-.383-.062-.662-.186-.837-.124-.174-.318-.262-.583-.262-.304 0-.648.212-1.03.634v2.975h-.694zm8.67.101a1.99 1.99 0 01-.997-.253 1.885 1.885 0 01-.71-.744c-.175-.321-.262-.704-.262-1.149 0-.451.087-.837.262-1.158a2.01 2.01 0 01.693-.744c.282-.174.578-.261.887-.261.524 0 .927.174 1.209.523.287.35.43.817.43 1.403 0 .073-.002.147-.008.22a.818.818 0 01-.017.177h-2.771c.028.434.163.781.405 1.04.248.259.57.389.964.389.197 0 .377-.029.54-.085.17-.062.33-.141.482-.237l.245.457a3.14 3.14 0 01-.6.295c-.22.085-.47.127-.752.127zm-1.293-2.484h2.197c0-.417-.09-.733-.27-.947-.175-.219-.423-.329-.744-.329-.287 0-.546.112-.777.338-.226.22-.36.532-.406.938zm4.184-.566a.51.51 0 01-.363-.144.531.531 0 01-.144-.38c0-.164.048-.293.144-.389a.497.497 0 01.363-.152.46.46 0 01.346.152.51.51 0 01.153.389.513.513 0 01-.153.38.472.472 0 01-.346.144zm-.49 4.385l-.17-.405a1.39 1.39 0 00.567-.431.915.915 0 00.194-.6.103.103 0 01-.042.008h-.042a.56.56 0 01-.355-.118c-.096-.085-.144-.206-.144-.363 0-.152.051-.271.153-.355a.53.53 0 01.363-.136c.18 0 .32.074.422.22.107.147.16.347.16.6 0 .361-.098.676-.295.947a1.867 1.867 0 01-.811.633zm3.99-1.436v-5.544h3.195v.592h-2.493v1.741h2.104v.6h-2.104v2.011h2.577v.6H58.36zm4.39 0v-4.107h.574l.059.591h.025c.18-.197.378-.36.592-.49a1.26 1.26 0 01.684-.202c.316 0 .56.07.735.211.18.135.313.327.398.574a3.7 3.7 0 01.65-.566c.22-.146.454-.219.702-.219.422 0 .735.138.938.414.208.27.312.667.312 1.191v2.603h-.693v-2.51c0-.383-.062-.662-.186-.837-.124-.174-.315-.262-.574-.262-.304 0-.648.212-1.031.634v2.975h-.693v-2.51c0-.383-.062-.662-.186-.837-.124-.174-.318-.262-.583-.262-.304 0-.648.212-1.031.634v2.975h-.693zm7.952.101c-.344 0-.631-.101-.862-.304-.225-.208-.338-.496-.338-.862 0-.451.2-.794.6-1.031.405-.242 1.045-.411 1.918-.507a1.61 1.61 0 00-.076-.498.717.717 0 00-.254-.381c-.118-.101-.29-.152-.515-.152-.237 0-.46.045-.668.135-.208.09-.394.192-.557.305l-.27-.482a4.28 4.28 0 01.7-.355c.282-.118.587-.177.913-.177.502 0 .865.154 1.09.464.226.305.339.713.339 1.226v2.518h-.575l-.06-.49h-.025a3.586 3.586 0 01-.633.414 1.543 1.543 0 01-.727.177zm.203-.557c.197 0 .383-.048.557-.144.175-.096.36-.231.558-.406v-1.141c-.682.085-1.16.212-1.436.381-.27.169-.406.386-.406.65 0 .231.07.4.211.507a.857.857 0 00.516.153zm3.109.456v-4.107h.693v4.107h-.693zm.355-4.952a.499.499 0 01-.338-.118.459.459 0 01-.127-.338c0-.136.042-.246.127-.33a.473.473 0 01.337-.127c.136 0 .246.042.33.127a.43.43 0 01.135.33c0 .14-.045.253-.135.338a.467.467 0 01-.33.118zm2.46 5.053c-.26 0-.448-.079-.567-.236-.112-.164-.169-.395-.169-.693v-5.189h.693v5.239c0 .107.02.186.06.237a.175.175 0 00.135.068h.059a.732.732 0 01.093-.017l.093.524a.608.608 0 01-.161.05c-.062.012-.14.017-.237.017zm1.781-3.05a.51.51 0 01-.363-.144.531.531 0 01-.144-.38c0-.164.048-.293.144-.389a.497.497 0 01.363-.152.46.46 0 01.347.152.51.51 0 01.152.389c0 .152-.05.279-.152.38a.472.472 0 01-.347.144zm-.49 4.385l-.169-.405c.243-.107.431-.251.567-.431a.915.915 0 00.194-.6.103.103 0 01-.042.008h-.043a.56.56 0 01-.355-.118.462.462 0 01-.143-.363c0-.152.05-.271.152-.355a.53.53 0 01.363-.136c.18 0 .321.074.423.22.107.147.16.347.16.6 0 .361-.098.676-.295.947a1.867 1.867 0 01-.812.633zm5.529-1.335a2.66 2.66 0 01-1.082-.219 2.88 2.88 0 01-.862-.6l.423-.491c.197.209.428.378.693.507.27.124.549.186.836.186.366 0 .65-.081.854-.245a.817.817 0 00.304-.659c0-.191-.042-.343-.127-.456a.96.96 0 00-.33-.287 5.047 5.047 0 00-.464-.237l-.794-.347a3.015 3.015 0 01-.524-.287 1.584 1.584 0 01-.431-.456 1.299 1.299 0 01-.17-.685c0-.281.074-.532.22-.752.152-.225.36-.4.626-.524a2.02 2.02 0 01.895-.194c.333 0 .64.065.922.194.281.124.52.288.718.49l-.38.457a1.896 1.896 0 00-.567-.381 1.615 1.615 0 00-.693-.143c-.31 0-.56.073-.752.22a.712.712 0 00-.279.591c0 .175.046.321.136.439.095.113.214.206.355.279.14.074.284.141.43.203l.786.338c.215.09.406.2.575.33.175.124.313.279.414.465.102.18.152.408.152.684 0 .293-.076.561-.228.803a1.612 1.612 0 01-.65.566c-.282.141-.618.211-1.006.211zm4.505 0c-.332 0-.645-.084-.938-.253a1.92 1.92 0 01-.701-.735c-.175-.322-.262-.707-.262-1.158 0-.462.087-.854.262-1.175a1.92 1.92 0 01.701-.735c.293-.169.606-.253.938-.253a1.817 1.817 0 011.631.988c.18.321.27.713.27 1.175 0 .451-.09.836-.27 1.158a1.817 1.817 0 01-1.63.988zm0-.574c.355 0 .64-.144.854-.431.22-.293.33-.674.33-1.141 0-.473-.11-.856-.33-1.149a1.007 1.007 0 00-.854-.44c-.349 0-.633.147-.853.44-.22.293-.33.676-.33 1.149 0 .467.11.848.33 1.141.22.287.504.431.853.431zm4.606.574c-.36 0-.688-.084-.98-.253a1.785 1.785 0 01-.693-.735c-.17-.322-.254-.707-.254-1.158 0-.462.09-.854.27-1.175.186-.321.429-.566.727-.735.305-.169.631-.253.98-.253.27 0 .502.047.693.143.198.096.367.209.507.338l-.354.457a1.648 1.648 0 00-.38-.262.931.931 0 00-.44-.102c-.248 0-.47.068-.668.203-.191.13-.343.315-.456.558-.107.236-.16.512-.16.828 0 .467.115.848.346 1.141.237.287.544.431.921.431.191 0 .369-.04.532-.119a2.01 2.01 0 00.431-.295l.305.464a2.27 2.27 0 01-.617.389c-.226.09-.462.135-.71.135zm2.231-.101v-4.107h.693v4.107h-.693zm.355-4.952a.499.499 0 01-.338-.118.459.459 0 01-.127-.338c0-.136.043-.246.127-.33a.473.473 0 01.338-.127c.135 0 .245.042.33.127a.43.43 0 01.135.33c0 .14-.045.253-.135.338a.467.467 0 01-.33.118zm2.671 5.053c-.343 0-.63-.101-.862-.304-.225-.208-.338-.496-.338-.862 0-.451.2-.794.6-1.031.406-.242 1.045-.411 1.918-.507a1.61 1.61 0 00-.075-.498.717.717 0 00-.254-.381c-.118-.101-.29-.152-.516-.152-.236 0-.459.045-.667.135-.209.09-.394.192-.558.305l-.27-.482c.191-.124.425-.242.701-.355a2.34 2.34 0 01.913-.177c.501 0 .865.154 1.09.464.225.305.338.713.338 1.226v2.518h-.575l-.059-.49h-.025a3.59 3.59 0 01-.634.414 1.544 1.544 0 01-.727.177zm.203-.557c.197 0 .383-.048.558-.144a3.13 3.13 0 00.557-.406v-1.141c-.681.085-1.16.212-1.436.381-.27.169-.406.386-.406.65 0 .231.07.4.212.507.14.102.312.153.515.153zm3.844.557c-.259 0-.448-.079-.566-.236-.113-.164-.169-.395-.169-.693v-5.189h.693v5.239c0 .107.02.186.059.237.04.045.085.068.135.068h.059a.76.76 0 01.093-.017l.093.524a.603.603 0 01-.16.05 1.295 1.295 0 01-.237.017zm3.178-.101v-5.544h.702v4.944h2.425v.6h-3.127zm4.042 0v-4.107h.693v4.107h-.693zm.355-4.952a.499.499 0 01-.338-.118.461.461 0 01-.127-.338c0-.136.043-.246.127-.33a.473.473 0 01.338-.127.446.446 0 01.465.457c0 .14-.045.253-.135.338a.47.47 0 01-.33.118zm1.725 4.952v-4.107h.575l.059.591h.025c.197-.197.406-.36.625-.49a1.41 1.41 0 01.753-.202c.433 0 .749.138.946.414.203.27.304.667.304 1.191v2.603h-.693v-2.51c0-.383-.062-.662-.186-.837-.124-.174-.321-.262-.591-.262-.209 0-.397.054-.566.161-.164.107-.35.265-.558.473v2.975h-.693zm4.621 0v-6.017h.685v4.073h.025l1.749-2.163h.769l-1.377 1.648 1.563 2.459h-.76l-1.2-1.978-.769.896v1.082h-.685zm4.655-2.949a.508.508 0 01-.363-.144.53.53 0 01-.144-.38c0-.164.048-.293.144-.389a.496.496 0 01.363-.152c.135 0 .251.051.346.152a.507.507 0 01.152.389c0 .152-.05.279-.152.38a.47.47 0 01-.346.144zm-.49 4.385l-.169-.405c.242-.107.431-.251.566-.431a.914.914 0 00.194-.6.101.101 0 01-.042.008h-.042a.56.56 0 01-.355-.118c-.096-.085-.144-.206-.144-.363 0-.152.051-.271.152-.355a.532.532 0 01.364-.136c.18 0 .321.074.422.22.107.147.161.347.161.6 0 .361-.099.676-.296.947a1.87 1.87 0 01-.811.633zm4.945-4.537l-.262.845h1.665l-.262-.845c-.101-.31-.197-.617-.287-.922-.09-.309-.181-.625-.271-.946h-.034a32.284 32.284 0 01-.549 1.868zm-1.69 3.101l1.876-5.544h.794l1.876 5.544h-.752l-.524-1.69h-2.019l-.533 1.69h-.718zm6.667.101c-.513 0-.924-.186-1.234-.557-.31-.378-.465-.908-.465-1.589 0-.445.082-.828.246-1.149.169-.327.388-.578.659-.753a1.62 1.62 0 01.879-.261c.236 0 .442.042.616.126.175.085.353.2.533.347l-.034-.702v-1.58h.701v6.017h-.574l-.059-.482h-.026a2.462 2.462 0 01-.557.414 1.45 1.45 0 01-.685.169zm.152-.583c.361 0 .71-.189 1.048-.566v-2.146a1.655 1.655 0 00-.507-.33 1.225 1.225 0 00-.49-.101c-.22 0-.42.067-.6.202-.175.13-.316.313-.423.55-.107.231-.16.504-.16.819 0 .491.098.876.296 1.158.197.276.476.414.836.414zm4.535.583c-.512 0-.924-.186-1.233-.557-.31-.378-.465-.908-.465-1.589 0-.445.082-.828.245-1.149.169-.327.389-.578.659-.753a1.62 1.62 0 01.879-.261c.236 0 .442.042.617.126.174.085.352.2.532.347l-.034-.702v-1.58h.702v6.017h-.575l-.059-.482h-.025a2.468 2.468 0 01-.558.414 1.444 1.444 0 01-.685.169zm.152-.583c.361 0 .71-.189 1.048-.566v-2.146a1.631 1.631 0 00-.507-.33 1.222 1.222 0 00-.49-.101c-.22 0-.42.067-.6.202-.174.13-.315.313-.422.55a1.933 1.933 0 00-.161.819c0 .491.099.876.296 1.158.197.276.476.414.836.414zm3.133.482v-4.107h.575l.059.744h.025c.141-.26.313-.465.516-.617a1.1 1.1 0 011.09-.144l-.136.608a1.055 1.055 0 00-.397-.067c-.174 0-.357.07-.549.211-.186.141-.349.386-.49.735v2.637h-.693zm4.512.101c-.366 0-.699-.084-.997-.253a1.88 1.88 0 01-.71-.744c-.175-.321-.262-.704-.262-1.149 0-.451.087-.837.262-1.158a2.01 2.01 0 01.693-.744 1.66 1.66 0 01.887-.261c.524 0 .927.174 1.208.523.288.35.431.817.431 1.403 0 .073-.002.147-.008.22a.83.83 0 01-.017.177h-2.772c.028.434.164.781.406 1.04.248.259.569.389.963.389.197 0 .378-.029.541-.085.169-.062.33-.141.482-.237l.245.457a3.162 3.162 0 01-.6.295c-.22.085-.471.127-.752.127zm-1.293-2.484h2.197c0-.417-.09-.733-.27-.947-.175-.219-.423-.329-.744-.329-.287 0-.547.112-.778.338-.225.22-.36.532-.405.938zm4.893 2.484c-.292 0-.571-.053-.836-.16a2.948 2.948 0 01-.693-.406l.346-.465c.181.141.367.259.558.355.192.09.409.135.651.135.27 0 .473-.062.608-.185a.615.615 0 00.203-.457.482.482 0 00-.144-.355 1.02 1.02 0 00-.355-.236 4.82 4.82 0 00-.439-.186 7.213 7.213 0 01-.566-.245 1.394 1.394 0 01-.456-.364.902.902 0 01-.178-.574c0-.333.124-.609.372-.828.253-.226.603-.338 1.048-.338.253 0 .49.045.71.135.219.09.408.2.566.329l-.338.44a2.193 2.193 0 00-.44-.262 1.205 1.205 0 00-.498-.102c-.259 0-.451.059-.575.178a.567.567 0 00-.177.414c0 .129.042.236.126.321.085.079.195.149.33.211.135.057.279.116.431.178.197.073.392.157.583.253.192.09.349.214.473.372.13.152.195.358.195.617a1.188 1.188 0 01-.685 1.056c-.22.113-.493.169-.82.169zm3.541 0c-.293 0-.572-.053-.837-.16a2.948 2.948 0 01-.693-.406l.347-.465c.18.141.366.259.557.355.192.09.409.135.651.135.271 0 .473-.062.609-.185a.614.614 0 00.202-.457.485.485 0 00-.143-.355 1.03 1.03 0 00-.355-.236 4.962 4.962 0 00-.44-.186 7.213 7.213 0 01-.566-.245 1.394 1.394 0 01-.456-.364.908.908 0 01-.178-.574c0-.333.124-.609.372-.828.254-.226.603-.338 1.048-.338.254 0 .49.045.71.135.22.09.408.2.566.329l-.338.44a2.186 2.186 0 00-.439-.262 1.21 1.21 0 00-.499-.102c-.259 0-.451.059-.575.178a.567.567 0 00-.177.414c0 .129.042.236.127.321.084.079.194.149.329.211l.431.178c.197.073.392.157.583.253.192.09.35.214.474.372.129.152.194.358.194.617a1.188 1.188 0 01-.685 1.056c-.219.113-.492.169-.819.169zm2.526 1.386l-.431-.203a6.267 6.267 0 00.727-1.732 7.505 7.505 0 00.245-1.901c0-.643-.082-1.274-.245-1.893a6.247 6.247 0 00-.727-1.741l.431-.203c.349.563.623 1.158.82 1.783.197.625.295 1.31.295 2.054 0 .743-.098 1.428-.295 2.053a8.083 8.083 0 01-.82 1.783z"/><path fill="#64ACFF" d="M162.164 309.602v1.967h1.967l5.802-5.802-1.967-1.967-5.802 5.802zm9.658-5.724l-1.967-1.967-1.328 1.333 1.968 1.967 1.327-1.333zM14.624 405.066c0-2.704 0-4.057.526-5.089a4.829 4.829 0 012.11-2.111c1.034-.526 2.386-.526 5.09-.526h187.881c2.704 0 4.056 0 5.089.526a4.828 4.828 0 012.111 2.111c.526 1.032.526 2.385.526 5.089v13.521c0 2.704 0 4.056-.526 5.089a4.828 4.828 0 01-2.111 2.111c-1.033.526-2.385.526-5.089.526H22.351c-2.705 0-4.057 0-5.09-.526a4.829 4.829 0 01-2.11-2.111c-.527-1.033-.527-2.385-.527-5.089v-13.521z"/><path fill="#fff" d="M102.612 415.442a2.81 2.81 0 01-1.439-.376 2.712 2.712 0 01-1.033-1.101c-.251-.49-.377-1.082-.377-1.777 0-.689.129-1.278.387-1.768.264-.495.614-.872 1.052-1.13a2.754 2.754 0 011.449-.396c.399 0 .753.081 1.062.242.309.161.564.348.763.56l-.599.724a1.908 1.908 0 00-.54-.396 1.376 1.376 0 00-.657-.154c-.341 0-.647.093-.918.28-.264.18-.473.441-.627.782-.148.341-.222.75-.222 1.227 0 .721.157 1.287.473 1.699.315.406.737.609 1.265.609.283 0 .534-.058.753-.174.219-.122.419-.28.599-.473l.599.705a2.759 2.759 0 01-.889.686 2.56 2.56 0 01-1.101.231zm4.889 0c-.393 0-.76-.096-1.101-.289a2.3 2.3 0 01-.831-.85c-.212-.374-.319-.821-.319-1.343 0-.528.107-.975.319-1.342a2.2 2.2 0 01.831-.85c.341-.2.708-.299 1.101-.299.399 0 .769.099 1.11.299.342.193.618.476.831.85.212.367.319.814.319 1.342 0 .522-.107.969-.319 1.343-.213.367-.489.65-.831.85a2.215 2.215 0 01-1.11.289zm0-.908a.945.945 0 00.821-.434c.199-.29.299-.67.299-1.14 0-.476-.1-.859-.299-1.149a.946.946 0 00-.821-.435.944.944 0 00-.821.435c-.193.29-.29.673-.29 1.149 0 .47.097.85.29 1.14.199.29.473.434.821.434zm3.359.792v-4.741h.917l.078.637h.038c.213-.206.445-.383.696-.531.251-.148.537-.222.859-.222.509 0 .879.164 1.111.492.232.329.347.792.347 1.391v2.974h-1.11v-2.829c0-.393-.058-.67-.174-.831-.116-.161-.306-.241-.57-.241a.997.997 0 00-.55.154 3.359 3.359 0 00-.531.435v3.312h-1.111zm5.597 0v-3.863h-.637v-.83l.637-.048v-.493c0-.496.123-.901.367-1.217.245-.322.647-.483 1.207-.483a2.369 2.369 0 01.87.164l-.213.831a1.28 1.28 0 00-.521-.116c-.4 0-.599.267-.599.802v.512h.927v.878h-.927v3.863h-1.111zm2.872 0v-4.741h1.111v4.741h-1.111zm.56-5.572a.671.671 0 01-.482-.174.606.606 0 01-.184-.463c0-.187.061-.338.184-.454a.671.671 0 01.482-.174c.2 0 .361.058.483.174a.595.595 0 01.184.454.606.606 0 01-.184.463.672.672 0 01-.483.174zm1.968 5.572v-4.741h.917l.078.84h.038c.168-.309.37-.544.609-.705.238-.168.483-.251.734-.251.225 0 .405.032.54.096l-.193.966a1.484 1.484 0 00-.492-.077c-.187 0-.383.074-.589.222-.206.141-.383.393-.532.753v2.897h-1.11zm3.603 0v-4.741h.917l.077.647h.039c.2-.213.415-.393.647-.541.238-.148.505-.222.802-.222.347 0 .624.077.83.231.213.148.374.355.483.618.225-.244.46-.447.705-.608.251-.161.525-.241.821-.241.502 0 .872.164 1.111.492.238.329.357.792.357 1.391v2.974h-1.12v-2.829c0-.393-.062-.67-.184-.831-.116-.161-.296-.241-.541-.241-.296 0-.627.196-.994.589v3.312h-1.111v-2.829c0-.393-.061-.67-.184-.831-.115-.161-.299-.241-.55-.241-.296 0-.628.196-.995.589v3.312h-1.11z"/></g><path fill="#4E83C0" d="M80 2h72v1a8 8 0 01-8 8H88a8 8 0 01-8-8V2z"/><path fill="#DAFF7C" fill-rule="evenodd" d="M232.292 126.745v-21.144c29.512-9.924 83.854-25.745 132.741-33.507 26.493-4.206 52.369-6.215 72.011-3.128 9.801 1.54 19.092 4.5 26.123 10.006 7.495 5.87 11.82 14.2 11.82 24.495 0 10.456-6.391 20.359-13.988 28.927-7.94 8.956-18.966 18.384-31.652 28.031-21.12 16.063-48.058 33.631-75.541 51.554v.001a8091.035 8091.035 0 00-16.6 10.844c-33.306 21.832-65.946 43.902-90.11 64.874-12.08 10.485-21.673 20.385-28.12 29.529-6.521 9.25-9.139 16.757-8.969 22.704.164 5.739 2.568 10.353 7.644 14.437 5.402 4.347 13.822 8.015 25.37 10.65 23.062 5.262 55.292 5.688 90.975 2.646 71.285-6.079 152.531-25.629 193.543-43.344 5.07-2.19 10.956.145 13.146 5.215 2.19 5.07-.145 10.955-5.215 13.145-43.488 18.785-126.955 38.702-199.775 44.911-36.37 3.102-71.04 2.877-97.123-3.075-13.026-2.972-24.74-7.551-33.458-14.565-9.044-7.275-14.746-17.132-15.099-29.448-.346-12.107 4.928-23.898 12.615-34.8 7.762-11.009 18.692-22.118 31.357-33.109 25.325-21.981 59.058-44.736 92.254-66.497 5.645-3.7 11.271-7.37 16.844-11.005 27.491-17.93 53.668-35.005 74.155-50.586 12.318-9.368 22.138-17.873 28.794-25.38 6.999-7.893 8.953-12.983 8.953-15.659 0-4.034-1.407-6.6-4.152-8.75-3.21-2.513-8.667-4.7-16.897-5.994-16.42-2.58-39.737-1.01-65.769 3.124-51.26 8.138-109.235 25.55-135.877 34.898z" clip-rule="evenodd"/><defs><clipPath id="b"><rect width="9.658" height="9.658" x="14.624" y="288.065" fill="#fff" rx="1.207"/></clipPath></defs></svg>